{
  "header": {
    "PPQ": 960,
    "timeSignature": [
      4,
      4
    ],
    "bpm": 100,
    "name": ""
  },
  "tempo": [
    {
      "absoluteTime": 0,
      "seconds": 0,
      "bpm": 100
    }
  ],
  "timeSignature": [
    {
      "absoluteTime": 0,
      "seconds": 0,
      "numerator": 4,
      "denominator": 2,
      "click": 24,
      "notesQ": 8
    }
  ],
  "startTime": 0,
  "duration": 73.12500000000071,
  "tracks": [
    {
      "startTime": 0,
      "duration": 0,
      "length": 0,
      "notes": [],
      "controlChanges": {},
      "id": 0
    },
    {
      "startTime": 2.4,
      "duration": 72.89999999999999,
      "length": 60,
      "notes": [
        {
          "name": "C2",
          "midi": 36,
          "time": 2.4,
          "velocity": 0.7874015748031497,
          "duration": 0.6000000000000001
        },
        {
          "name": "F#2",
          "midi": 42,
          "time": 3.6,
          "velocity": 0.7874015748031497,
          "duration": 0.6000000000000001
        },
        {
          "name": "C2",
          "midi": 36,
          "time": 4.8,
          "velocity": 0.7874015748031497,
          "duration": 0.5999999999999996
        },
        {
          "name": "F#2",
          "midi": 42,
          "time": 5.999999999999999,
          "velocity": 0.7874015748031497,
          "duration": 0.5999999999999996
        },
        {
          "name": "C2",
          "midi": 36,
          "time": 7.199999999999998,
          "velocity": 0.7874015748031497,
          "duration": 0.5999999999999996
        },
        {
          "name": "F#2",
          "midi": 42,
          "time": 8.399999999999999,
          "velocity": 0.7874015748031497,
          "duration": 0.5999999999999996
        },
        {
          "name": "C2",
          "midi": 36,
          "time": 9.599999999999998,
          "velocity": 0.7874015748031497,
          "duration": 0.5999999999999996
        },
        {
          "name": "F#2",
          "midi": 42,
          "time": 10.799999999999997,
          "velocity": 0.7874015748031497,
          "duration": 0.5999999999999996
        },
        {
          "name": "C2",
          "midi": 36,
          "time": 11.999999999999996,
          "velocity": 0.7874015748031497,
          "duration": 0.5999999999999996
        },
        {
          "name": "F#2",
          "midi": 42,
          "time": 13.499999999999996,
          "velocity": 0.7874015748031497,
          "duration": 0.5999999999999996
        },
        {
          "name": "C2",
          "midi": 36,
          "time": 14.099999999999996,
          "velocity": 0.7874015748031497,
          "duration": 0.5999999999999996
        },
        {
          "name": "F#2",
          "midi": 42,
          "time": 15.599999999999996,
          "velocity": 0.7874015748031497,
          "duration": 0.5999999999999996
        },
        {
          "name": "C2",
          "midi": 36,
          "time": 16.799999999999997,
          "velocity": 0.7874015748031497,
          "duration": 0.6000000000000014
        },
        {
          "name": "F#2",
          "midi": 42,
          "time": 18,
          "velocity": 0.7874015748031497,
          "duration": 0.6000000000000014
        },
        {
          "name": "C2",
          "midi": 36,
          "time": 19.200000000000003,
          "velocity": 0.7874015748031497,
          "duration": 0.6000000000000014
        },
        {
          "name": "F#2",
          "midi": 42,
          "time": 20.400000000000006,
          "velocity": 0.7874015748031497,
          "duration": 0.6000000000000014
        },
        {
          "name": "C2",
          "midi": 36,
          "time": 21.60000000000001,
          "velocity": 0.7874015748031497,
          "duration": 0.6000000000000014
        },
        {
          "name": "F#2",
          "midi": 42,
          "time": 22.80000000000001,
          "velocity": 0.7874015748031497,
          "duration": 0.6000000000000014
        },
        {
          "name": "C2",
          "midi": 36,
          "time": 24.000000000000014,
          "velocity": 0.7874015748031497,
          "duration": 0.6000000000000014
        },
        {
          "name": "F#2",
          "midi": 42,
          "time": 25.200000000000017,
          "velocity": 0.7874015748031497,
          "duration": 0.6000000000000014
        },
        {
          "name": "C2",
          "midi": 36,
          "time": 26.40000000000002,
          "velocity": 0.7874015748031497,
          "duration": 0.6000000000000014
        },
        {
          "name": "F#2",
          "midi": 42,
          "time": 27.90000000000002,
          "velocity": 0.7874015748031497,
          "duration": 0.6000000000000014
        },
        {
          "name": "C2",
          "midi": 36,
          "time": 28.50000000000002,
          "velocity": 0.7874015748031497,
          "duration": 0.6000000000000014
        },
        {
          "name": "F#2",
          "midi": 42,
          "time": 30.00000000000002,
          "velocity": 0.7874015748031497,
          "duration": 0.6000000000000014
        },
        {
          "name": "C2",
          "midi": 36,
          "time": 31.200000000000024,
          "velocity": 0.7874015748031497,
          "duration": 0.6000000000000014
        },
        {
          "name": "F#2",
          "midi": 42,
          "time": 32.40000000000003,
          "velocity": 0.7874015748031497,
          "duration": 0.6000000000000014
        },
        {
          "name": "C2",
          "midi": 36,
          "time": 33.60000000000003,
          "velocity": 0.7874015748031497,
          "duration": 0.6000000000000014
        },
        {
          "name": "F#2",
          "midi": 42,
          "time": 34.80000000000003,
          "velocity": 0.7874015748031497,
          "duration": 0.6000000000000014
        },
        {
          "name": "C2",
          "midi": 36,
          "time": 36.000000000000036,
          "velocity": 0.7874015748031497,
          "duration": 0.6000000000000014
        },
        {
          "name": "F#2",
          "midi": 42,
          "time": 37.20000000000004,
          "velocity": 0.7874015748031497,
          "duration": 0.6000000000000014
        },
        {
          "name": "C2",
          "midi": 36,
          "time": 38.40000000000004,
          "velocity": 0.7874015748031497,
          "duration": 0.6000000000000014
        },
        {
          "name": "F#2",
          "midi": 42,
          "time": 39.600000000000044,
          "velocity": 0.7874015748031497,
          "duration": 0.6000000000000014
        },
        {
          "name": "C2",
          "midi": 36,
          "time": 40.80000000000005,
          "velocity": 0.7874015748031497,
          "duration": 0.6000000000000014
        },
        {
          "name": "F#2",
          "midi": 42,
          "time": 42.00000000000005,
          "velocity": 0.7874015748031497,
          "duration": 0.6000000000000014
        },
        {
          "name": "C2",
          "midi": 36,
          "time": 43.20000000000005,
          "velocity": 0.7874015748031497,
          "duration": 0.6000000000000014
        },
        {
          "name": "F#2",
          "midi": 42,
          "time": 44.400000000000055,
          "velocity": 0.7874015748031497,
          "duration": 0.6000000000000014
        },
        {
          "name": "C2",
          "midi": 36,
          "time": 45.60000000000006,
          "velocity": 0.7874015748031497,
          "duration": 0.6000000000000014
        },
        {
          "name": "F#2",
          "midi": 42,
          "time": 46.50000000000006,
          "velocity": 0.7874015748031497,
          "duration": 0.6000000000000014
        },
        {
          "name": "C2",
          "midi": 36,
          "time": 47.400000000000055,
          "velocity": 0.7874015748031497,
          "duration": 0.6000000000000014
        },
        {
          "name": "F#2",
          "midi": 42,
          "time": 48.300000000000054,
          "velocity": 0.7874015748031497,
          "duration": 0.6000000000000014
        },
        {
          "name": "C2",
          "midi": 36,
          "time": 49.20000000000005,
          "velocity": 0.7874015748031497,
          "duration": 0.6000000000000014
        },
        {
          "name": "F#2",
          "midi": 42,
          "time": 50.10000000000005,
          "velocity": 0.7874015748031497,
          "duration": 0.6000000000000014
        },
        {
          "name": "C2",
          "midi": 36,
          "time": 52.800000000000054,
          "velocity": 0.7874015748031497,
          "duration": 0.6000000000000014
        },
        {
          "name": "F#2",
          "midi": 42,
          "time": 54.300000000000054,
          "velocity": 0.7874015748031497,
          "duration": 0.6000000000000014
        },
        {
          "name": "C2",
          "midi": 36,
          "time": 54.900000000000055,
          "velocity": 0.7874015748031497,
          "duration": 0.6000000000000014
        },
        {
          "name": "F#2",
          "midi": 42,
          "time": 56.400000000000055,
          "velocity": 0.7874015748031497,
          "duration": 0.6000000000000014
        },
        {
          "name": "C2",
          "midi": 36,
          "time": 57.60000000000006,
          "velocity": 0.7874015748031497,
          "duration": 0.6000000000000014
        },
        {
          "name": "F#2",
          "midi": 42,
          "time": 58.80000000000006,
          "velocity": 0.7874015748031497,
          "duration": 0.6000000000000014
        },
        {
          "name": "C2",
          "midi": 36,
          "time": 60.000000000000064,
          "velocity": 0.7874015748031497,
          "duration": 0.6000000000000014
        },
        {
          "name": "F#2",
          "midi": 42,
          "time": 61.20000000000007,
          "velocity": 0.7874015748031497,
          "duration": 0.6000000000000014
        },
        {
          "name": "C2",
          "midi": 36,
          "time": 62.40000000000007,
          "velocity": 0.7874015748031497,
          "duration": 0.6000000000000014
        },
        {
          "name": "F#2",
          "midi": 42,
          "time": 63.60000000000007,
          "velocity": 0.7874015748031497,
          "duration": 0.6000000000000014
        },
        {
          "name": "C2",
          "midi": 36,
          "time": 64.80000000000007,
          "velocity": 0.7874015748031497,
          "duration": 0.5999999999999943
        },
        {
          "name": "F#2",
          "midi": 42,
          "time": 66.00000000000006,
          "velocity": 0.7874015748031497,
          "duration": 0.5999999999999943
        },
        {
          "name": "C2",
          "midi": 36,
          "time": 67.20000000000005,
          "velocity": 0.7874015748031497,
          "duration": 0.5999999999999943
        },
        {
          "name": "F#2",
          "midi": 42,
          "time": 68.40000000000003,
          "velocity": 0.7874015748031497,
          "duration": 0.5999999999999943
        },
        {
          "name": "C2",
          "midi": 36,
          "time": 69.60000000000002,
          "velocity": 0.7874015748031497,
          "duration": 0.5999999999999943
        },
        {
          "name": "C2",
          "midi": 36,
          "time": 70.50000000000001,
          "velocity": 0.7874015748031497,
          "duration": 0.5999999999999943
        },
        {
          "name": "F#2",
          "midi": 42,
          "time": 71.4,
          "velocity": 0.7874015748031497,
          "duration": 0.5999999999999943
        },
        {
          "name": "F#2",
          "midi": 42,
          "time": 72.3,
          "velocity": 0.7874015748031497,
          "duration": 0.5999999999999943
        }
      ],
      "controlChanges": {},
      "id": 1,
      "name": "Drum",
      "channelNumber": 0,
      "isPercussion": false
    },
    {
      "startTime": 2.4,
      "duration": 73.12500000000071,
      "length": 415,
      "notes": [
        {
          "name": "C4",
          "midi": 60,
          "time": 2.4,
          "velocity": 0.7874015748031497,
          "duration": 0.07500000000000018
        },
        {
          "name": "C4",
          "midi": 60,
          "time": 2.5500000000000003,
          "velocity": 0.7874015748031497,
          "duration": 0.07500000000000018
        },
        {
          "name": "C4",
          "midi": 60,
          "time": 2.7000000000000006,
          "velocity": 0.7874015748031497,
          "duration": 0.07500000000000018
        },
        {
          "name": "C4",
          "midi": 60,
          "time": 2.850000000000001,
          "velocity": 0.7874015748031497,
          "duration": 0.07500000000000018
        },
        {
          "name": "C4",
          "midi": 60,
          "time": 3.0000000000000013,
          "velocity": 0.7874015748031497,
          "duration": 0.07500000000000018
        },
        {
          "name": "C4",
          "midi": 60,
          "time": 3.1500000000000017,
          "velocity": 0.7874015748031497,
          "duration": 0.07500000000000018
        },
        {
          "name": "C4",
          "midi": 60,
          "time": 3.450000000000002,
          "velocity": 0.7874015748031497,
          "duration": 0.07500000000000018
        },
        {
          "name": "G#3",
          "midi": 56,
          "time": 3.750000000000002,
          "velocity": 0.7874015748031497,
          "duration": 0.07500000000000018
        },
        {
          "name": "G#3",
          "midi": 56,
          "time": 3.9000000000000026,
          "velocity": 0.7874015748031497,
          "duration": 0.07500000000000018
        },
        {
          "name": "F3",
          "midi": 53,
          "time": 4.0500000000000025,
          "velocity": 0.7874015748031497,
          "duration": 0.07500000000000018
        },
        {
          "name": "F3",
          "midi": 53,
          "time": 4.200000000000003,
          "velocity": 0.7874015748031497,
          "duration": 0.07500000000000018
        },
        {
          "name": "F3",
          "midi": 53,
          "time": 4.350000000000003,
          "velocity": 0.7874015748031497,
          "duration": 0.07500000000000018
        },
        {
          "name": "F3",
          "midi": 53,
          "time": 4.5000000000000036,
          "velocity": 0.7874015748031497,
          "duration": 0.07500000000000018
        },
        {
          "name": "F3",
          "midi": 53,
          "time": 4.650000000000004,
          "velocity": 0.7874015748031497,
          "duration": 0.07500000000000018
        },
        {
          "name": "F3",
          "midi": 53,
          "time": 4.800000000000004,
          "velocity": 0.7874015748031497,
          "duration": 0.07500000000000018
        },
        {
          "name": "F3",
          "midi": 53,
          "time": 5.100000000000004,
          "velocity": 0.7874015748031497,
          "duration": 0.07500000000000018
        },
        {
          "name": "G#3",
          "midi": 56,
          "time": 5.400000000000004,
          "velocity": 0.7874015748031497,
          "duration": 0.07500000000000018
        },
        {
          "name": "G#3",
          "midi": 56,
          "time": 5.550000000000004,
          "velocity": 0.7874015748031497,
          "duration": 0.07500000000000018
        },
        {
          "name": "G#3",
          "midi": 56,
          "time": 5.850000000000004,
          "velocity": 0.7874015748031497,
          "duration": 0.07500000000000018
        },
        {
          "name": "G#3",
          "midi": 56,
          "time": 6.000000000000004,
          "velocity": 0.7874015748031497,
          "duration": 0.07500000000000018
        },
        {
          "name": "G#3",
          "midi": 56,
          "time": 6.150000000000005,
          "velocity": 0.7874015748031497,
          "duration": 0.07500000000000018
        },
        {
          "name": "D#4",
          "midi": 63,
          "time": 6.300000000000005,
          "velocity": 0.7874015748031497,
          "duration": 0.07500000000000018
        },
        {
          "name": "C4",
          "midi": 60,
          "time": 6.300000000000005,
          "velocity": 0.7874015748031497,
          "duration": 0.07500000000000018
        },
        {
          "name": "A3",
          "midi": 57,
          "time": 6.4500000000000055,
          "velocity": 0.7874015748031497,
          "duration": 0.07500000000000018
        },
        {
          "name": "C4",
          "midi": 60,
          "time": 6.4500000000000055,
          "velocity": 0.7874015748031497,
          "duration": 0.07500000000000018
        },
        {
          "name": "C4",
          "midi": 60,
          "time": 7.2000000000000055,
          "velocity": 0.7874015748031497,
          "duration": 0.07500000000000018
        },
        {
          "name": "C4",
          "midi": 60,
          "time": 7.350000000000006,
          "velocity": 0.7874015748031497,
          "duration": 0.07500000000000018
        },
        {
          "name": "C4",
          "midi": 60,
          "time": 7.500000000000006,
          "velocity": 0.7874015748031497,
          "duration": 0.07500000000000018
        },
        {
          "name": "C4",
          "midi": 60,
          "time": 7.650000000000007,
          "velocity": 0.7874015748031497,
          "duration": 0.07500000000000018
        },
        {
          "name": "C4",
          "midi": 60,
          "time": 7.800000000000007,
          "velocity": 0.7874015748031497,
          "duration": 0.07500000000000018
        },
        {
          "name": "C4",
          "midi": 60,
          "time": 7.950000000000007,
          "velocity": 0.7874015748031497,
          "duration": 0.07500000000000018
        },
        {
          "name": "C4",
          "midi": 60,
          "time": 8.250000000000007,
          "velocity": 0.7874015748031497,
          "duration": 0.07499999999999929
        },
        {
          "name": "G#3",
          "midi": 56,
          "time": 8.550000000000006,
          "velocity": 0.7874015748031497,
          "duration": 0.07499999999999929
        },
        {
          "name": "G#3",
          "midi": 56,
          "time": 8.700000000000005,
          "velocity": 0.7874015748031497,
          "duration": 0.07499999999999929
        },
        {
          "name": "F3",
          "midi": 53,
          "time": 8.850000000000003,
          "velocity": 0.7874015748031497,
          "duration": 0.07499999999999929
        },
        {
          "name": "F3",
          "midi": 53,
          "time": 9.000000000000002,
          "velocity": 0.7874015748031497,
          "duration": 0.07499999999999929
        },
        {
          "name": "F3",
          "midi": 53,
          "time": 9.15,
          "velocity": 0.7874015748031497,
          "duration": 0.07499999999999929
        },
        {
          "name": "F3",
          "midi": 53,
          "time": 9.299999999999999,
          "velocity": 0.7874015748031497,
          "duration": 0.07499999999999929
        },
        {
          "name": "F3",
          "midi": 53,
          "time": 9.449999999999998,
          "velocity": 0.7874015748031497,
          "duration": 0.07499999999999929
        },
        {
          "name": "F3",
          "midi": 53,
          "time": 9.599999999999996,
          "velocity": 0.7874015748031497,
          "duration": 0.07499999999999929
        },
        {
          "name": "F3",
          "midi": 53,
          "time": 9.899999999999995,
          "velocity": 0.7874015748031497,
          "duration": 0.07499999999999929
        },
        {
          "name": "G#3",
          "midi": 56,
          "time": 10.199999999999994,
          "velocity": 0.7874015748031497,
          "duration": 0.07499999999999929
        },
        {
          "name": "G#3",
          "midi": 56,
          "time": 10.349999999999993,
          "velocity": 0.7874015748031497,
          "duration": 0.07499999999999929
        },
        {
          "name": "G#3",
          "midi": 56,
          "time": 10.649999999999991,
          "velocity": 0.7874015748031497,
          "duration": 0.07499999999999929
        },
        {
          "name": "G#3",
          "midi": 56,
          "time": 10.79999999999999,
          "velocity": 0.7874015748031497,
          "duration": 0.07499999999999929
        },
        {
          "name": "G#3",
          "midi": 56,
          "time": 10.949999999999989,
          "velocity": 0.7874015748031497,
          "duration": 0.07499999999999929
        },
        {
          "name": "D#4",
          "midi": 63,
          "time": 11.099999999999987,
          "velocity": 0.7874015748031497,
          "duration": 0.07499999999999929
        },
        {
          "name": "C4",
          "midi": 60,
          "time": 11.099999999999987,
          "velocity": 0.7874015748031497,
          "duration": 0.07499999999999929
        },
        {
          "name": "A3",
          "midi": 57,
          "time": 11.249999999999986,
          "velocity": 0.7874015748031497,
          "duration": 0.07499999999999929
        },
        {
          "name": "C4",
          "midi": 60,
          "time": 11.249999999999986,
          "velocity": 0.7874015748031497,
          "duration": 0.07499999999999929
        },
        {
          "name": "C4",
          "midi": 60,
          "time": 11.999999999999986,
          "velocity": 0.7874015748031497,
          "duration": 0.07499999999999929
        },
        {
          "name": "C4",
          "midi": 60,
          "time": 12.149999999999984,
          "velocity": 0.7874015748031497,
          "duration": 0.07499999999999929
        },
        {
          "name": "C4",
          "midi": 60,
          "time": 12.299999999999983,
          "velocity": 0.7874015748031497,
          "duration": 0.07499999999999929
        },
        {
          "name": "C4",
          "midi": 60,
          "time": 12.449999999999982,
          "velocity": 0.7874015748031497,
          "duration": 0.07499999999999929
        },
        {
          "name": "C4",
          "midi": 60,
          "time": 12.59999999999998,
          "velocity": 0.7874015748031497,
          "duration": 0.07499999999999929
        },
        {
          "name": "C4",
          "midi": 60,
          "time": 12.749999999999979,
          "velocity": 0.7874015748031497,
          "duration": 0.07499999999999929
        },
        {
          "name": "C4",
          "midi": 60,
          "time": 13.049999999999978,
          "velocity": 0.7874015748031497,
          "duration": 0.07499999999999929
        },
        {
          "name": "G#3",
          "midi": 56,
          "time": 13.349999999999977,
          "velocity": 0.7874015748031497,
          "duration": 0.07499999999999929
        },
        {
          "name": "G#3",
          "midi": 56,
          "time": 13.499999999999975,
          "velocity": 0.7874015748031497,
          "duration": 0.07499999999999929
        },
        {
          "name": "F3",
          "midi": 53,
          "time": 13.649999999999974,
          "velocity": 0.7874015748031497,
          "duration": 0.07499999999999929
        },
        {
          "name": "F3",
          "midi": 53,
          "time": 13.799999999999972,
          "velocity": 0.7874015748031497,
          "duration": 0.07499999999999929
        },
        {
          "name": "F3",
          "midi": 53,
          "time": 13.94999999999997,
          "velocity": 0.7874015748031497,
          "duration": 0.07499999999999929
        },
        {
          "name": "F3",
          "midi": 53,
          "time": 14.09999999999997,
          "velocity": 0.7874015748031497,
          "duration": 0.07499999999999929
        },
        {
          "name": "F3",
          "midi": 53,
          "time": 14.249999999999968,
          "velocity": 0.7874015748031497,
          "duration": 0.07499999999999929
        },
        {
          "name": "F3",
          "midi": 53,
          "time": 14.399999999999967,
          "velocity": 0.7874015748031497,
          "duration": 0.07499999999999929
        },
        {
          "name": "F3",
          "midi": 53,
          "time": 14.699999999999966,
          "velocity": 0.7874015748031497,
          "duration": 0.07499999999999929
        },
        {
          "name": "G#3",
          "midi": 56,
          "time": 14.999999999999964,
          "velocity": 0.7874015748031497,
          "duration": 0.07499999999999929
        },
        {
          "name": "G#3",
          "midi": 56,
          "time": 15.149999999999963,
          "velocity": 0.7874015748031497,
          "duration": 0.07499999999999929
        },
        {
          "name": "G#3",
          "midi": 56,
          "time": 15.449999999999962,
          "velocity": 0.7874015748031497,
          "duration": 0.07499999999999929
        },
        {
          "name": "G#3",
          "midi": 56,
          "time": 15.59999999999996,
          "velocity": 0.7874015748031497,
          "duration": 0.07499999999999929
        },
        {
          "name": "G#3",
          "midi": 56,
          "time": 15.74999999999996,
          "velocity": 0.7874015748031497,
          "duration": 0.07499999999999929
        },
        {
          "name": "A3",
          "midi": 57,
          "time": 15.899999999999958,
          "velocity": 0.7874015748031497,
          "duration": 0.07499999999999929
        },
        {
          "name": "C4",
          "midi": 60,
          "time": 15.899999999999958,
          "velocity": 0.7874015748031497,
          "duration": 0.07499999999999929
        },
        {
          "name": "D#4",
          "midi": 63,
          "time": 16.049999999999958,
          "velocity": 0.7874015748031497,
          "duration": 0.07499999999999929
        },
        {
          "name": "C4",
          "midi": 60,
          "time": 16.049999999999958,
          "velocity": 0.7874015748031497,
          "duration": 0.07499999999999929
        },
        {
          "name": "C4",
          "midi": 60,
          "time": 16.799999999999958,
          "velocity": 0.7874015748031497,
          "duration": 0.07499999999999929
        },
        {
          "name": "C4",
          "midi": 60,
          "time": 16.949999999999957,
          "velocity": 0.7874015748031497,
          "duration": 0.07499999999999929
        },
        {
          "name": "C4",
          "midi": 60,
          "time": 17.099999999999955,
          "velocity": 0.7874015748031497,
          "duration": 0.07499999999999929
        },
        {
          "name": "C4",
          "midi": 60,
          "time": 17.249999999999954,
          "velocity": 0.7874015748031497,
          "duration": 0.07499999999999929
        },
        {
          "name": "C4",
          "midi": 60,
          "time": 17.399999999999952,
          "velocity": 0.7874015748031497,
          "duration": 0.07499999999999929
        },
        {
          "name": "C4",
          "midi": 60,
          "time": 17.54999999999995,
          "velocity": 0.7874015748031497,
          "duration": 0.07499999999999929
        },
        {
          "name": "C4",
          "midi": 60,
          "time": 17.84999999999995,
          "velocity": 0.7874015748031497,
          "duration": 0.07499999999999929
        },
        {
          "name": "G#3",
          "midi": 56,
          "time": 18.149999999999952,
          "velocity": 0.7874015748031497,
          "duration": 0.07499999999999929
        },
        {
          "name": "G#3",
          "midi": 56,
          "time": 18.29999999999995,
          "velocity": 0.7874015748031497,
          "duration": 0.07499999999999929
        },
        {
          "name": "F3",
          "midi": 53,
          "time": 18.44999999999995,
          "velocity": 0.7874015748031497,
          "duration": 0.07499999999999929
        },
        {
          "name": "F3",
          "midi": 53,
          "time": 18.599999999999948,
          "velocity": 0.7874015748031497,
          "duration": 0.07499999999999929
        },
        {
          "name": "F3",
          "midi": 53,
          "time": 18.749999999999947,
          "velocity": 0.7874015748031497,
          "duration": 0.07499999999999929
        },
        {
          "name": "F3",
          "midi": 53,
          "time": 18.899999999999945,
          "velocity": 0.7874015748031497,
          "duration": 0.07499999999999929
        },
        {
          "name": "F3",
          "midi": 53,
          "time": 19.049999999999944,
          "velocity": 0.7874015748031497,
          "duration": 0.07499999999999929
        },
        {
          "name": "F3",
          "midi": 53,
          "time": 19.199999999999942,
          "velocity": 0.7874015748031497,
          "duration": 0.07499999999999929
        },
        {
          "name": "F3",
          "midi": 53,
          "time": 19.499999999999943,
          "velocity": 0.7874015748031497,
          "duration": 0.07499999999999929
        },
        {
          "name": "G#3",
          "midi": 56,
          "time": 19.799999999999944,
          "velocity": 0.7874015748031497,
          "duration": 0.07499999999999929
        },
        {
          "name": "G#3",
          "midi": 56,
          "time": 19.949999999999942,
          "velocity": 0.7874015748031497,
          "duration": 0.07499999999999929
        },
        {
          "name": "G#3",
          "midi": 56,
          "time": 20.249999999999943,
          "velocity": 0.7874015748031497,
          "duration": 0.07499999999999929
        },
        {
          "name": "G#3",
          "midi": 56,
          "time": 20.39999999999994,
          "velocity": 0.7874015748031497,
          "duration": 0.07499999999999929
        },
        {
          "name": "G#3",
          "midi": 56,
          "time": 20.54999999999994,
          "velocity": 0.7874015748031497,
          "duration": 0.07499999999999929
        },
        {
          "name": "D#4",
          "midi": 63,
          "time": 20.69999999999994,
          "velocity": 0.7874015748031497,
          "duration": 0.07499999999999929
        },
        {
          "name": "C4",
          "midi": 60,
          "time": 20.69999999999994,
          "velocity": 0.7874015748031497,
          "duration": 0.07499999999999929
        },
        {
          "name": "D#4",
          "midi": 63,
          "time": 20.849999999999937,
          "velocity": 0.7874015748031497,
          "duration": 0.07499999999999929
        },
        {
          "name": "C4",
          "midi": 60,
          "time": 20.849999999999937,
          "velocity": 0.7874015748031497,
          "duration": 0.07499999999999929
        },
        {
          "name": "D#4",
          "midi": 63,
          "time": 26.399999999999935,
          "velocity": 0.7874015748031497,
          "duration": 0.07499999999999929
        },
        {
          "name": "C4",
          "midi": 60,
          "time": 26.399999999999935,
          "velocity": 0.7874015748031497,
          "duration": 0.07499999999999929
        },
        {
          "name": "G#3",
          "midi": 56,
          "time": 26.549999999999933,
          "velocity": 0.7874015748031497,
          "duration": 0.07499999999999929
        },
        {
          "name": "C4",
          "midi": 60,
          "time": 26.549999999999933,
          "velocity": 0.7874015748031497,
          "duration": 0.07499999999999929
        },
        {
          "name": "D#4",
          "midi": 63,
          "time": 26.699999999999932,
          "velocity": 0.7874015748031497,
          "duration": 0.07499999999999929
        },
        {
          "name": "C4",
          "midi": 60,
          "time": 26.699999999999932,
          "velocity": 0.7874015748031497,
          "duration": 0.07499999999999929
        },
        {
          "name": "G#3",
          "midi": 56,
          "time": 26.84999999999993,
          "velocity": 0.7874015748031497,
          "duration": 0.07499999999999929
        },
        {
          "name": "C4",
          "midi": 60,
          "time": 26.84999999999993,
          "velocity": 0.7874015748031497,
          "duration": 0.07499999999999929
        },
        {
          "name": "D#4",
          "midi": 63,
          "time": 26.99999999999993,
          "velocity": 0.7874015748031497,
          "duration": 0.07499999999999929
        },
        {
          "name": "C4",
          "midi": 60,
          "time": 26.99999999999993,
          "velocity": 0.7874015748031497,
          "duration": 0.07499999999999929
        },
        {
          "name": "G#3",
          "midi": 56,
          "time": 27.149999999999928,
          "velocity": 0.7874015748031497,
          "duration": 0.07499999999999929
        },
        {
          "name": "C4",
          "midi": 60,
          "time": 27.149999999999928,
          "velocity": 0.7874015748031497,
          "duration": 0.07499999999999929
        },
        {
          "name": "G#3",
          "midi": 56,
          "time": 27.44999999999993,
          "velocity": 0.7874015748031497,
          "duration": 0.07499999999999929
        },
        {
          "name": "C4",
          "midi": 60,
          "time": 27.44999999999993,
          "velocity": 0.7874015748031497,
          "duration": 0.07499999999999929
        },
        {
          "name": "G#3",
          "midi": 56,
          "time": 27.74999999999993,
          "velocity": 0.7874015748031497,
          "duration": 0.07499999999999929
        },
        {
          "name": "G#3",
          "midi": 56,
          "time": 27.899999999999928,
          "velocity": 0.7874015748031497,
          "duration": 0.07499999999999929
        },
        {
          "name": "F3",
          "midi": 53,
          "time": 28.049999999999926,
          "velocity": 0.7874015748031497,
          "duration": 0.07499999999999929
        },
        {
          "name": "F3",
          "midi": 53,
          "time": 28.199999999999925,
          "velocity": 0.7874015748031497,
          "duration": 0.07499999999999929
        },
        {
          "name": "F3",
          "midi": 53,
          "time": 28.349999999999923,
          "velocity": 0.7874015748031497,
          "duration": 0.07499999999999929
        },
        {
          "name": "F3",
          "midi": 53,
          "time": 28.499999999999922,
          "velocity": 0.7874015748031497,
          "duration": 0.07499999999999929
        },
        {
          "name": "F3",
          "midi": 53,
          "time": 28.64999999999992,
          "velocity": 0.7874015748031497,
          "duration": 0.07499999999999929
        },
        {
          "name": "F3",
          "midi": 53,
          "time": 28.79999999999992,
          "velocity": 0.7874015748031497,
          "duration": 0.07499999999999929
        },
        {
          "name": "F3",
          "midi": 53,
          "time": 29.09999999999992,
          "velocity": 0.7874015748031497,
          "duration": 0.07499999999999929
        },
        {
          "name": "C4",
          "midi": 60,
          "time": 29.39999999999992,
          "velocity": 0.7874015748031497,
          "duration": 0.07499999999999929
        },
        {
          "name": "G#3",
          "midi": 56,
          "time": 29.39999999999992,
          "velocity": 0.7874015748031497,
          "duration": 0.07499999999999929
        },
        {
          "name": "C4",
          "midi": 60,
          "time": 29.54999999999992,
          "velocity": 0.7874015748031497,
          "duration": 0.07499999999999929
        },
        {
          "name": "G#3",
          "midi": 56,
          "time": 29.54999999999992,
          "velocity": 0.7874015748031497,
          "duration": 0.07499999999999929
        },
        {
          "name": "B3",
          "midi": 59,
          "time": 29.84999999999992,
          "velocity": 0.7874015748031497,
          "duration": 0.07499999999999929
        },
        {
          "name": "G#3",
          "midi": 56,
          "time": 29.84999999999992,
          "velocity": 0.7874015748031497,
          "duration": 0.07499999999999929
        },
        {
          "name": "A#3",
          "midi": 58,
          "time": 29.99999999999992,
          "velocity": 0.7874015748031497,
          "duration": 0.07499999999999929
        },
        {
          "name": "G#3",
          "midi": 56,
          "time": 29.99999999999992,
          "velocity": 0.7874015748031497,
          "duration": 0.07499999999999929
        },
        {
          "name": "G#3",
          "midi": 56,
          "time": 30.149999999999917,
          "velocity": 0.7874015748031497,
          "duration": 0.07499999999999929
        },
        {
          "name": "D#4",
          "midi": 63,
          "time": 30.299999999999915,
          "velocity": 0.7874015748031497,
          "duration": 0.07499999999999929
        },
        {
          "name": "C4",
          "midi": 60,
          "time": 30.299999999999915,
          "velocity": 0.7874015748031497,
          "duration": 0.07499999999999929
        },
        {
          "name": "D#4",
          "midi": 63,
          "time": 30.449999999999914,
          "velocity": 0.7874015748031497,
          "duration": 0.07499999999999929
        },
        {
          "name": "C4",
          "midi": 60,
          "time": 30.449999999999914,
          "velocity": 0.7874015748031497,
          "duration": 0.07499999999999929
        },
        {
          "name": "D#4",
          "midi": 63,
          "time": 31.199999999999914,
          "velocity": 0.7874015748031497,
          "duration": 0.07499999999999929
        },
        {
          "name": "C4",
          "midi": 60,
          "time": 31.199999999999914,
          "velocity": 0.7874015748031497,
          "duration": 0.07499999999999929
        },
        {
          "name": "G#3",
          "midi": 56,
          "time": 31.349999999999913,
          "velocity": 0.7874015748031497,
          "duration": 0.07499999999999929
        },
        {
          "name": "C4",
          "midi": 60,
          "time": 31.349999999999913,
          "velocity": 0.7874015748031497,
          "duration": 0.07499999999999929
        },
        {
          "name": "D#4",
          "midi": 63,
          "time": 31.49999999999991,
          "velocity": 0.7874015748031497,
          "duration": 0.07499999999999929
        },
        {
          "name": "C4",
          "midi": 60,
          "time": 31.49999999999991,
          "velocity": 0.7874015748031497,
          "duration": 0.07499999999999929
        },
        {
          "name": "G#3",
          "midi": 56,
          "time": 31.64999999999991,
          "velocity": 0.7874015748031497,
          "duration": 0.07499999999999929
        },
        {
          "name": "C4",
          "midi": 60,
          "time": 31.64999999999991,
          "velocity": 0.7874015748031497,
          "duration": 0.07499999999999929
        },
        {
          "name": "D#4",
          "midi": 63,
          "time": 31.79999999999991,
          "velocity": 0.7874015748031497,
          "duration": 0.07499999999999929
        },
        {
          "name": "C4",
          "midi": 60,
          "time": 31.79999999999991,
          "velocity": 0.7874015748031497,
          "duration": 0.07499999999999929
        },
        {
          "name": "G#3",
          "midi": 56,
          "time": 31.949999999999907,
          "velocity": 0.7874015748031497,
          "duration": 0.07499999999999929
        },
        {
          "name": "C4",
          "midi": 60,
          "time": 31.949999999999907,
          "velocity": 0.7874015748031497,
          "duration": 0.07499999999999929
        },
        {
          "name": "G#3",
          "midi": 56,
          "time": 32.24999999999991,
          "velocity": 0.7874015748031497,
          "duration": 0.07500000000000284
        },
        {
          "name": "C4",
          "midi": 60,
          "time": 32.24999999999991,
          "velocity": 0.7874015748031497,
          "duration": 0.07500000000000284
        },
        {
          "name": "G#3",
          "midi": 56,
          "time": 32.54999999999991,
          "velocity": 0.7874015748031497,
          "duration": 0.07500000000000284
        },
        {
          "name": "G#3",
          "midi": 56,
          "time": 32.69999999999992,
          "velocity": 0.7874015748031497,
          "duration": 0.07500000000000284
        },
        {
          "name": "F3",
          "midi": 53,
          "time": 32.84999999999992,
          "velocity": 0.7874015748031497,
          "duration": 0.07500000000000284
        },
        {
          "name": "F3",
          "midi": 53,
          "time": 32.99999999999993,
          "velocity": 0.7874015748031497,
          "duration": 0.07500000000000284
        },
        {
          "name": "F3",
          "midi": 53,
          "time": 33.149999999999935,
          "velocity": 0.7874015748031497,
          "duration": 0.07500000000000284
        },
        {
          "name": "F3",
          "midi": 53,
          "time": 33.29999999999994,
          "velocity": 0.7874015748031497,
          "duration": 0.07500000000000284
        },
        {
          "name": "F3",
          "midi": 53,
          "time": 33.449999999999946,
          "velocity": 0.7874015748031497,
          "duration": 0.07500000000000284
        },
        {
          "name": "F3",
          "midi": 53,
          "time": 33.59999999999995,
          "velocity": 0.7874015748031497,
          "duration": 0.07500000000000284
        },
        {
          "name": "F3",
          "midi": 53,
          "time": 33.899999999999956,
          "velocity": 0.7874015748031497,
          "duration": 0.07500000000000284
        },
        {
          "name": "C4",
          "midi": 60,
          "time": 34.19999999999996,
          "velocity": 0.7874015748031497,
          "duration": 0.07500000000000284
        },
        {
          "name": "G#3",
          "midi": 56,
          "time": 34.19999999999996,
          "velocity": 0.7874015748031497,
          "duration": 0.07500000000000284
        },
        {
          "name": "C4",
          "midi": 60,
          "time": 34.349999999999966,
          "velocity": 0.7874015748031497,
          "duration": 0.07500000000000284
        },
        {
          "name": "G#3",
          "midi": 56,
          "time": 34.349999999999966,
          "velocity": 0.7874015748031497,
          "duration": 0.07500000000000284
        },
        {
          "name": "B3",
          "midi": 59,
          "time": 34.64999999999997,
          "velocity": 0.7874015748031497,
          "duration": 0.07500000000000284
        },
        {
          "name": "G#3",
          "midi": 56,
          "time": 34.64999999999997,
          "velocity": 0.7874015748031497,
          "duration": 0.07500000000000284
        },
        {
          "name": "A#3",
          "midi": 58,
          "time": 34.799999999999976,
          "velocity": 0.7874015748031497,
          "duration": 0.07500000000000284
        },
        {
          "name": "G#3",
          "midi": 56,
          "time": 34.799999999999976,
          "velocity": 0.7874015748031497,
          "duration": 0.07500000000000284
        },
        {
          "name": "G#3",
          "midi": 56,
          "time": 34.94999999999998,
          "velocity": 0.7874015748031497,
          "duration": 0.07500000000000284
        },
        {
          "name": "D#4",
          "midi": 63,
          "time": 35.09999999999999,
          "velocity": 0.7874015748031497,
          "duration": 0.07500000000000284
        },
        {
          "name": "C4",
          "midi": 60,
          "time": 35.09999999999999,
          "velocity": 0.7874015748031497,
          "duration": 0.07500000000000284
        },
        {
          "name": "A3",
          "midi": 57,
          "time": 35.24999999999999,
          "velocity": 0.7874015748031497,
          "duration": 0.07500000000000284
        },
        {
          "name": "C4",
          "midi": 60,
          "time": 35.24999999999999,
          "velocity": 0.7874015748031497,
          "duration": 0.07500000000000284
        },
        {
          "name": "D#4",
          "midi": 63,
          "time": 35.99999999999999,
          "velocity": 0.7874015748031497,
          "duration": 0.07500000000000284
        },
        {
          "name": "C4",
          "midi": 60,
          "time": 35.99999999999999,
          "velocity": 0.7874015748031497,
          "duration": 0.07500000000000284
        },
        {
          "name": "G#3",
          "midi": 56,
          "time": 36.15,
          "velocity": 0.7874015748031497,
          "duration": 0.07500000000000284
        },
        {
          "name": "C4",
          "midi": 60,
          "time": 36.15,
          "velocity": 0.7874015748031497,
          "duration": 0.07500000000000284
        },
        {
          "name": "D#4",
          "midi": 63,
          "time": 36.300000000000004,
          "velocity": 0.7874015748031497,
          "duration": 0.07500000000000284
        },
        {
          "name": "C4",
          "midi": 60,
          "time": 36.300000000000004,
          "velocity": 0.7874015748031497,
          "duration": 0.07500000000000284
        },
        {
          "name": "G#3",
          "midi": 56,
          "time": 36.45000000000001,
          "velocity": 0.7874015748031497,
          "duration": 0.07500000000000284
        },
        {
          "name": "C4",
          "midi": 60,
          "time": 36.45000000000001,
          "velocity": 0.7874015748031497,
          "duration": 0.07500000000000284
        },
        {
          "name": "D#4",
          "midi": 63,
          "time": 36.600000000000016,
          "velocity": 0.7874015748031497,
          "duration": 0.07500000000000284
        },
        {
          "name": "C4",
          "midi": 60,
          "time": 36.600000000000016,
          "velocity": 0.7874015748031497,
          "duration": 0.07500000000000284
        },
        {
          "name": "G#3",
          "midi": 56,
          "time": 36.75000000000002,
          "velocity": 0.7874015748031497,
          "duration": 0.07500000000000284
        },
        {
          "name": "C4",
          "midi": 60,
          "time": 36.75000000000002,
          "velocity": 0.7874015748031497,
          "duration": 0.07500000000000284
        },
        {
          "name": "G#3",
          "midi": 56,
          "time": 37.050000000000026,
          "velocity": 0.7874015748031497,
          "duration": 0.07500000000000284
        },
        {
          "name": "C4",
          "midi": 60,
          "time": 37.050000000000026,
          "velocity": 0.7874015748031497,
          "duration": 0.07500000000000284
        },
        {
          "name": "G#3",
          "midi": 56,
          "time": 37.35000000000003,
          "velocity": 0.7874015748031497,
          "duration": 0.07500000000000284
        },
        {
          "name": "G#3",
          "midi": 56,
          "time": 37.500000000000036,
          "velocity": 0.7874015748031497,
          "duration": 0.07500000000000284
        },
        {
          "name": "F3",
          "midi": 53,
          "time": 37.65000000000004,
          "velocity": 0.7874015748031497,
          "duration": 0.07500000000000284
        },
        {
          "name": "F3",
          "midi": 53,
          "time": 37.80000000000005,
          "velocity": 0.7874015748031497,
          "duration": 0.07500000000000284
        },
        {
          "name": "F3",
          "midi": 53,
          "time": 37.95000000000005,
          "velocity": 0.7874015748031497,
          "duration": 0.07500000000000284
        },
        {
          "name": "F3",
          "midi": 53,
          "time": 38.10000000000006,
          "velocity": 0.7874015748031497,
          "duration": 0.07500000000000284
        },
        {
          "name": "F3",
          "midi": 53,
          "time": 38.250000000000064,
          "velocity": 0.7874015748031497,
          "duration": 0.07500000000000284
        },
        {
          "name": "F3",
          "midi": 53,
          "time": 38.40000000000007,
          "velocity": 0.7874015748031497,
          "duration": 0.07500000000000284
        },
        {
          "name": "F3",
          "midi": 53,
          "time": 38.700000000000074,
          "velocity": 0.7874015748031497,
          "duration": 0.07500000000000284
        },
        {
          "name": "C4",
          "midi": 60,
          "time": 39.00000000000008,
          "velocity": 0.7874015748031497,
          "duration": 0.07500000000000284
        },
        {
          "name": "G#3",
          "midi": 56,
          "time": 39.00000000000008,
          "velocity": 0.7874015748031497,
          "duration": 0.07500000000000284
        },
        {
          "name": "C4",
          "midi": 60,
          "time": 39.150000000000084,
          "velocity": 0.7874015748031497,
          "duration": 0.07500000000000284
        },
        {
          "name": "G#3",
          "midi": 56,
          "time": 39.150000000000084,
          "velocity": 0.7874015748031497,
          "duration": 0.07500000000000284
        },
        {
          "name": "B3",
          "midi": 59,
          "time": 39.45000000000009,
          "velocity": 0.7874015748031497,
          "duration": 0.07500000000000284
        },
        {
          "name": "G#3",
          "midi": 56,
          "time": 39.45000000000009,
          "velocity": 0.7874015748031497,
          "duration": 0.07500000000000284
        },
        {
          "name": "A#3",
          "midi": 58,
          "time": 39.600000000000094,
          "velocity": 0.7874015748031497,
          "duration": 0.07500000000000284
        },
        {
          "name": "G#3",
          "midi": 56,
          "time": 39.600000000000094,
          "velocity": 0.7874015748031497,
          "duration": 0.07500000000000284
        },
        {
          "name": "G#3",
          "midi": 56,
          "time": 39.7500000000001,
          "velocity": 0.7874015748031497,
          "duration": 0.07500000000000284
        },
        {
          "name": "A3",
          "midi": 57,
          "time": 39.900000000000105,
          "velocity": 0.7874015748031497,
          "duration": 0.07500000000000284
        },
        {
          "name": "C4",
          "midi": 60,
          "time": 39.900000000000105,
          "velocity": 0.7874015748031497,
          "duration": 0.07500000000000284
        },
        {
          "name": "D#4",
          "midi": 63,
          "time": 40.05000000000011,
          "velocity": 0.7874015748031497,
          "duration": 0.07500000000000284
        },
        {
          "name": "C4",
          "midi": 60,
          "time": 40.05000000000011,
          "velocity": 0.7874015748031497,
          "duration": 0.07500000000000284
        },
        {
          "name": "D#4",
          "midi": 63,
          "time": 45.600000000000115,
          "velocity": 0.7874015748031497,
          "duration": 0.07500000000000284
        },
        {
          "name": "C4",
          "midi": 60,
          "time": 45.600000000000115,
          "velocity": 0.7874015748031497,
          "duration": 0.07500000000000284
        },
        {
          "name": "G#3",
          "midi": 56,
          "time": 45.75000000000012,
          "velocity": 0.7874015748031497,
          "duration": 0.07500000000000284
        },
        {
          "name": "C4",
          "midi": 60,
          "time": 45.75000000000012,
          "velocity": 0.7874015748031497,
          "duration": 0.07500000000000284
        },
        {
          "name": "D#4",
          "midi": 63,
          "time": 45.90000000000013,
          "velocity": 0.7874015748031497,
          "duration": 0.07500000000000284
        },
        {
          "name": "C4",
          "midi": 60,
          "time": 45.90000000000013,
          "velocity": 0.7874015748031497,
          "duration": 0.07500000000000284
        },
        {
          "name": "G#3",
          "midi": 56,
          "time": 46.05000000000013,
          "velocity": 0.7874015748031497,
          "duration": 0.07500000000000284
        },
        {
          "name": "C4",
          "midi": 60,
          "time": 46.05000000000013,
          "velocity": 0.7874015748031497,
          "duration": 0.07500000000000284
        },
        {
          "name": "D#4",
          "midi": 63,
          "time": 46.20000000000014,
          "velocity": 0.7874015748031497,
          "duration": 0.07500000000000284
        },
        {
          "name": "C4",
          "midi": 60,
          "time": 46.20000000000014,
          "velocity": 0.7874015748031497,
          "duration": 0.07500000000000284
        },
        {
          "name": "G#3",
          "midi": 56,
          "time": 46.35000000000014,
          "velocity": 0.7874015748031497,
          "duration": 0.07500000000000284
        },
        {
          "name": "C4",
          "midi": 60,
          "time": 46.35000000000014,
          "velocity": 0.7874015748031497,
          "duration": 0.07500000000000284
        },
        {
          "name": "G#3",
          "midi": 56,
          "time": 46.65000000000015,
          "velocity": 0.7874015748031497,
          "duration": 0.07500000000000284
        },
        {
          "name": "C4",
          "midi": 60,
          "time": 46.65000000000015,
          "velocity": 0.7874015748031497,
          "duration": 0.07500000000000284
        },
        {
          "name": "G#3",
          "midi": 56,
          "time": 46.95000000000015,
          "velocity": 0.7874015748031497,
          "duration": 0.07500000000000284
        },
        {
          "name": "G#3",
          "midi": 56,
          "time": 47.10000000000016,
          "velocity": 0.7874015748031497,
          "duration": 0.07500000000000284
        },
        {
          "name": "F3",
          "midi": 53,
          "time": 47.25000000000016,
          "velocity": 0.7874015748031497,
          "duration": 0.07500000000000284
        },
        {
          "name": "F3",
          "midi": 53,
          "time": 47.40000000000017,
          "velocity": 0.7874015748031497,
          "duration": 0.07500000000000284
        },
        {
          "name": "F3",
          "midi": 53,
          "time": 47.550000000000175,
          "velocity": 0.7874015748031497,
          "duration": 0.07500000000000284
        },
        {
          "name": "F3",
          "midi": 53,
          "time": 47.70000000000018,
          "velocity": 0.7874015748031497,
          "duration": 0.07500000000000284
        },
        {
          "name": "F3",
          "midi": 53,
          "time": 47.850000000000186,
          "velocity": 0.7874015748031497,
          "duration": 0.07500000000000284
        },
        {
          "name": "F3",
          "midi": 53,
          "time": 48.00000000000019,
          "velocity": 0.7874015748031497,
          "duration": 0.07500000000000284
        },
        {
          "name": "F3",
          "midi": 53,
          "time": 48.300000000000196,
          "velocity": 0.7874015748031497,
          "duration": 0.07500000000000284
        },
        {
          "name": "C4",
          "midi": 60,
          "time": 48.6000000000002,
          "velocity": 0.7874015748031497,
          "duration": 0.07500000000000284
        },
        {
          "name": "G#3",
          "midi": 56,
          "time": 48.6000000000002,
          "velocity": 0.7874015748031497,
          "duration": 0.07500000000000284
        },
        {
          "name": "C4",
          "midi": 60,
          "time": 48.750000000000206,
          "velocity": 0.7874015748031497,
          "duration": 0.07500000000000284
        },
        {
          "name": "G#3",
          "midi": 56,
          "time": 48.750000000000206,
          "velocity": 0.7874015748031497,
          "duration": 0.07500000000000284
        },
        {
          "name": "B3",
          "midi": 59,
          "time": 49.05000000000021,
          "velocity": 0.7874015748031497,
          "duration": 0.07500000000000284
        },
        {
          "name": "G#3",
          "midi": 56,
          "time": 49.05000000000021,
          "velocity": 0.7874015748031497,
          "duration": 0.07500000000000284
        },
        {
          "name": "A#3",
          "midi": 58,
          "time": 49.200000000000216,
          "velocity": 0.7874015748031497,
          "duration": 0.07500000000000284
        },
        {
          "name": "G#3",
          "midi": 56,
          "time": 49.200000000000216,
          "velocity": 0.7874015748031497,
          "duration": 0.07500000000000284
        },
        {
          "name": "G#3",
          "midi": 56,
          "time": 49.35000000000022,
          "velocity": 0.7874015748031497,
          "duration": 0.07500000000000284
        },
        {
          "name": "A3",
          "midi": 57,
          "time": 49.50000000000023,
          "velocity": 0.7874015748031497,
          "duration": 0.07500000000000284
        },
        {
          "name": "C4",
          "midi": 60,
          "time": 49.50000000000023,
          "velocity": 0.7874015748031497,
          "duration": 0.07500000000000284
        },
        {
          "name": "D#4",
          "midi": 63,
          "time": 49.65000000000023,
          "velocity": 0.7874015748031497,
          "duration": 0.07500000000000284
        },
        {
          "name": "C4",
          "midi": 60,
          "time": 49.65000000000023,
          "velocity": 0.7874015748031497,
          "duration": 0.07500000000000284
        },
        {
          "name": "B3",
          "midi": 59,
          "time": 49.95000000000024,
          "velocity": 0.7874015748031497,
          "duration": 0.07500000000000284
        },
        {
          "name": "D4",
          "midi": 62,
          "time": 49.95000000000024,
          "velocity": 0.7874015748031497,
          "duration": 0.07500000000000284
        },
        {
          "name": "B3",
          "midi": 59,
          "time": 50.10000000000024,
          "velocity": 0.7874015748031497,
          "duration": 0.07500000000000284
        },
        {
          "name": "C#4",
          "midi": 61,
          "time": 50.10000000000024,
          "velocity": 0.7874015748031497,
          "duration": 0.07500000000000284
        },
        {
          "name": "B3",
          "midi": 59,
          "time": 50.25000000000025,
          "velocity": 0.7874015748031497,
          "duration": 0.07500000000000284
        },
        {
          "name": "D#4",
          "midi": 63,
          "time": 50.400000000000254,
          "velocity": 0.7874015748031497,
          "duration": 0.07500000000000284
        },
        {
          "name": "C4",
          "midi": 60,
          "time": 50.400000000000254,
          "velocity": 0.7874015748031497,
          "duration": 0.07500000000000284
        },
        {
          "name": "D#4",
          "midi": 63,
          "time": 50.55000000000026,
          "velocity": 0.7874015748031497,
          "duration": 0.07500000000000284
        },
        {
          "name": "F#4",
          "midi": 66,
          "time": 50.55000000000026,
          "velocity": 0.7874015748031497,
          "duration": 0.07500000000000284
        },
        {
          "name": "D#4",
          "midi": 63,
          "time": 52.80000000000026,
          "velocity": 0.7874015748031497,
          "duration": 0.07500000000000284
        },
        {
          "name": "C4",
          "midi": 60,
          "time": 52.80000000000026,
          "velocity": 0.7874015748031497,
          "duration": 0.07500000000000284
        },
        {
          "name": "G#3",
          "midi": 56,
          "time": 52.950000000000266,
          "velocity": 0.7874015748031497,
          "duration": 0.07500000000000284
        },
        {
          "name": "C4",
          "midi": 60,
          "time": 52.950000000000266,
          "velocity": 0.7874015748031497,
          "duration": 0.07500000000000284
        },
        {
          "name": "D#4",
          "midi": 63,
          "time": 53.10000000000027,
          "velocity": 0.7874015748031497,
          "duration": 0.07500000000000284
        },
        {
          "name": "C4",
          "midi": 60,
          "time": 53.10000000000027,
          "velocity": 0.7874015748031497,
          "duration": 0.07500000000000284
        },
        {
          "name": "G#3",
          "midi": 56,
          "time": 53.25000000000028,
          "velocity": 0.7874015748031497,
          "duration": 0.07500000000000284
        },
        {
          "name": "C4",
          "midi": 60,
          "time": 53.25000000000028,
          "velocity": 0.7874015748031497,
          "duration": 0.07500000000000284
        },
        {
          "name": "D#4",
          "midi": 63,
          "time": 53.40000000000028,
          "velocity": 0.7874015748031497,
          "duration": 0.07500000000000284
        },
        {
          "name": "C4",
          "midi": 60,
          "time": 53.40000000000028,
          "velocity": 0.7874015748031497,
          "duration": 0.07500000000000284
        },
        {
          "name": "G#3",
          "midi": 56,
          "time": 53.55000000000029,
          "velocity": 0.7874015748031497,
          "duration": 0.07500000000000284
        },
        {
          "name": "C4",
          "midi": 60,
          "time": 53.55000000000029,
          "velocity": 0.7874015748031497,
          "duration": 0.07500000000000284
        },
        {
          "name": "G#3",
          "midi": 56,
          "time": 53.85000000000029,
          "velocity": 0.7874015748031497,
          "duration": 0.07500000000000284
        },
        {
          "name": "C4",
          "midi": 60,
          "time": 53.85000000000029,
          "velocity": 0.7874015748031497,
          "duration": 0.07500000000000284
        },
        {
          "name": "G#3",
          "midi": 56,
          "time": 54.1500000000003,
          "velocity": 0.7874015748031497,
          "duration": 0.07500000000000284
        },
        {
          "name": "G#3",
          "midi": 56,
          "time": 54.3000000000003,
          "velocity": 0.7874015748031497,
          "duration": 0.07500000000000284
        },
        {
          "name": "F3",
          "midi": 53,
          "time": 54.45000000000031,
          "velocity": 0.7874015748031497,
          "duration": 0.07500000000000284
        },
        {
          "name": "F3",
          "midi": 53,
          "time": 54.600000000000314,
          "velocity": 0.7874015748031497,
          "duration": 0.07500000000000284
        },
        {
          "name": "F3",
          "midi": 53,
          "time": 54.75000000000032,
          "velocity": 0.7874015748031497,
          "duration": 0.07500000000000284
        },
        {
          "name": "F3",
          "midi": 53,
          "time": 54.900000000000325,
          "velocity": 0.7874015748031497,
          "duration": 0.07500000000000284
        },
        {
          "name": "F3",
          "midi": 53,
          "time": 55.05000000000033,
          "velocity": 0.7874015748031497,
          "duration": 0.07500000000000284
        },
        {
          "name": "F3",
          "midi": 53,
          "time": 55.20000000000034,
          "velocity": 0.7874015748031497,
          "duration": 0.07500000000000284
        },
        {
          "name": "F3",
          "midi": 53,
          "time": 55.50000000000034,
          "velocity": 0.7874015748031497,
          "duration": 0.07500000000000284
        },
        {
          "name": "C4",
          "midi": 60,
          "time": 55.800000000000345,
          "velocity": 0.7874015748031497,
          "duration": 0.07500000000000284
        },
        {
          "name": "G#3",
          "midi": 56,
          "time": 55.800000000000345,
          "velocity": 0.7874015748031497,
          "duration": 0.07500000000000284
        },
        {
          "name": "C4",
          "midi": 60,
          "time": 55.95000000000035,
          "velocity": 0.7874015748031497,
          "duration": 0.07500000000000284
        },
        {
          "name": "G#3",
          "midi": 56,
          "time": 55.95000000000035,
          "velocity": 0.7874015748031497,
          "duration": 0.07500000000000284
        },
        {
          "name": "B3",
          "midi": 59,
          "time": 56.250000000000355,
          "velocity": 0.7874015748031497,
          "duration": 0.07500000000000284
        },
        {
          "name": "G#3",
          "midi": 56,
          "time": 56.250000000000355,
          "velocity": 0.7874015748031497,
          "duration": 0.07500000000000284
        },
        {
          "name": "A#3",
          "midi": 58,
          "time": 56.40000000000036,
          "velocity": 0.7874015748031497,
          "duration": 0.07500000000000284
        },
        {
          "name": "G#3",
          "midi": 56,
          "time": 56.40000000000036,
          "velocity": 0.7874015748031497,
          "duration": 0.07500000000000284
        },
        {
          "name": "G#3",
          "midi": 56,
          "time": 56.55000000000037,
          "velocity": 0.7874015748031497,
          "duration": 0.07500000000000284
        },
        {
          "name": "A3",
          "midi": 57,
          "time": 56.70000000000037,
          "velocity": 0.7874015748031497,
          "duration": 0.07500000000000284
        },
        {
          "name": "C4",
          "midi": 60,
          "time": 56.70000000000037,
          "velocity": 0.7874015748031497,
          "duration": 0.07500000000000284
        },
        {
          "name": "D#4",
          "midi": 63,
          "time": 56.85000000000038,
          "velocity": 0.7874015748031497,
          "duration": 0.07500000000000284
        },
        {
          "name": "C4",
          "midi": 60,
          "time": 56.85000000000038,
          "velocity": 0.7874015748031497,
          "duration": 0.07500000000000284
        },
        {
          "name": "D#4",
          "midi": 63,
          "time": 57.60000000000038,
          "velocity": 0.7874015748031497,
          "duration": 0.07500000000000284
        },
        {
          "name": "C4",
          "midi": 60,
          "time": 57.60000000000038,
          "velocity": 0.7874015748031497,
          "duration": 0.07500000000000284
        },
        {
          "name": "G#3",
          "midi": 56,
          "time": 57.750000000000384,
          "velocity": 0.7874015748031497,
          "duration": 0.07500000000000284
        },
        {
          "name": "C4",
          "midi": 60,
          "time": 57.750000000000384,
          "velocity": 0.7874015748031497,
          "duration": 0.07500000000000284
        },
        {
          "name": "D#4",
          "midi": 63,
          "time": 57.90000000000039,
          "velocity": 0.7874015748031497,
          "duration": 0.07500000000000284
        },
        {
          "name": "C4",
          "midi": 60,
          "time": 57.90000000000039,
          "velocity": 0.7874015748031497,
          "duration": 0.07500000000000284
        },
        {
          "name": "G#3",
          "midi": 56,
          "time": 58.050000000000395,
          "velocity": 0.7874015748031497,
          "duration": 0.07500000000000284
        },
        {
          "name": "C4",
          "midi": 60,
          "time": 58.050000000000395,
          "velocity": 0.7874015748031497,
          "duration": 0.07500000000000284
        },
        {
          "name": "D#4",
          "midi": 63,
          "time": 58.2000000000004,
          "velocity": 0.7874015748031497,
          "duration": 0.07500000000000284
        },
        {
          "name": "C4",
          "midi": 60,
          "time": 58.2000000000004,
          "velocity": 0.7874015748031497,
          "duration": 0.07500000000000284
        },
        {
          "name": "G#3",
          "midi": 56,
          "time": 58.350000000000406,
          "velocity": 0.7874015748031497,
          "duration": 0.07500000000000284
        },
        {
          "name": "C4",
          "midi": 60,
          "time": 58.350000000000406,
          "velocity": 0.7874015748031497,
          "duration": 0.07500000000000284
        },
        {
          "name": "G#3",
          "midi": 56,
          "time": 58.65000000000041,
          "velocity": 0.7874015748031497,
          "duration": 0.07500000000000284
        },
        {
          "name": "C4",
          "midi": 60,
          "time": 58.65000000000041,
          "velocity": 0.7874015748031497,
          "duration": 0.07500000000000284
        },
        {
          "name": "G#3",
          "midi": 56,
          "time": 58.950000000000415,
          "velocity": 0.7874015748031497,
          "duration": 0.07500000000000284
        },
        {
          "name": "G#3",
          "midi": 56,
          "time": 59.10000000000042,
          "velocity": 0.7874015748031497,
          "duration": 0.07500000000000284
        },
        {
          "name": "F3",
          "midi": 53,
          "time": 59.250000000000426,
          "velocity": 0.7874015748031497,
          "duration": 0.07500000000000284
        },
        {
          "name": "F3",
          "midi": 53,
          "time": 59.40000000000043,
          "velocity": 0.7874015748031497,
          "duration": 0.07500000000000284
        },
        {
          "name": "F3",
          "midi": 53,
          "time": 59.55000000000044,
          "velocity": 0.7874015748031497,
          "duration": 0.07500000000000284
        },
        {
          "name": "F3",
          "midi": 53,
          "time": 59.70000000000044,
          "velocity": 0.7874015748031497,
          "duration": 0.07500000000000284
        },
        {
          "name": "F3",
          "midi": 53,
          "time": 59.85000000000045,
          "velocity": 0.7874015748031497,
          "duration": 0.07500000000000284
        },
        {
          "name": "F3",
          "midi": 53,
          "time": 60.000000000000455,
          "velocity": 0.7874015748031497,
          "duration": 0.07500000000000284
        },
        {
          "name": "F3",
          "midi": 53,
          "time": 60.30000000000046,
          "velocity": 0.7874015748031497,
          "duration": 0.07500000000000284
        },
        {
          "name": "C4",
          "midi": 60,
          "time": 60.60000000000046,
          "velocity": 0.7874015748031497,
          "duration": 0.07500000000000284
        },
        {
          "name": "G#3",
          "midi": 56,
          "time": 60.60000000000046,
          "velocity": 0.7874015748031497,
          "duration": 0.07500000000000284
        },
        {
          "name": "C4",
          "midi": 60,
          "time": 60.75000000000047,
          "velocity": 0.7874015748031497,
          "duration": 0.07500000000000284
        },
        {
          "name": "G#3",
          "midi": 56,
          "time": 60.75000000000047,
          "velocity": 0.7874015748031497,
          "duration": 0.07500000000000284
        },
        {
          "name": "B3",
          "midi": 59,
          "time": 61.05000000000047,
          "velocity": 0.7874015748031497,
          "duration": 0.07500000000000284
        },
        {
          "name": "G#3",
          "midi": 56,
          "time": 61.05000000000047,
          "velocity": 0.7874015748031497,
          "duration": 0.07500000000000284
        },
        {
          "name": "A#3",
          "midi": 58,
          "time": 61.20000000000048,
          "velocity": 0.7874015748031497,
          "duration": 0.07500000000000284
        },
        {
          "name": "G#3",
          "midi": 56,
          "time": 61.20000000000048,
          "velocity": 0.7874015748031497,
          "duration": 0.07500000000000284
        },
        {
          "name": "G#3",
          "midi": 56,
          "time": 61.350000000000485,
          "velocity": 0.7874015748031497,
          "duration": 0.07500000000000284
        },
        {
          "name": "A3",
          "midi": 57,
          "time": 61.50000000000049,
          "velocity": 0.7874015748031497,
          "duration": 0.07500000000000284
        },
        {
          "name": "C4",
          "midi": 60,
          "time": 61.50000000000049,
          "velocity": 0.7874015748031497,
          "duration": 0.07500000000000284
        },
        {
          "name": "D#4",
          "midi": 63,
          "time": 61.650000000000496,
          "velocity": 0.7874015748031497,
          "duration": 0.07500000000000284
        },
        {
          "name": "C4",
          "midi": 60,
          "time": 61.650000000000496,
          "velocity": 0.7874015748031497,
          "duration": 0.07500000000000284
        },
        {
          "name": "D#4",
          "midi": 63,
          "time": 62.400000000000496,
          "velocity": 0.7874015748031497,
          "duration": 0.07500000000000284
        },
        {
          "name": "C4",
          "midi": 60,
          "time": 62.400000000000496,
          "velocity": 0.7874015748031497,
          "duration": 0.07500000000000284
        },
        {
          "name": "G#3",
          "midi": 56,
          "time": 62.5500000000005,
          "velocity": 0.7874015748031497,
          "duration": 0.07500000000000284
        },
        {
          "name": "C4",
          "midi": 60,
          "time": 62.5500000000005,
          "velocity": 0.7874015748031497,
          "duration": 0.07500000000000284
        },
        {
          "name": "D#4",
          "midi": 63,
          "time": 62.70000000000051,
          "velocity": 0.7874015748031497,
          "duration": 0.07500000000000284
        },
        {
          "name": "C4",
          "midi": 60,
          "time": 62.70000000000051,
          "velocity": 0.7874015748031497,
          "duration": 0.07500000000000284
        },
        {
          "name": "G#3",
          "midi": 56,
          "time": 62.85000000000051,
          "velocity": 0.7874015748031497,
          "duration": 0.07500000000000284
        },
        {
          "name": "C4",
          "midi": 60,
          "time": 62.85000000000051,
          "velocity": 0.7874015748031497,
          "duration": 0.07500000000000284
        },
        {
          "name": "D#4",
          "midi": 63,
          "time": 63.00000000000052,
          "velocity": 0.7874015748031497,
          "duration": 0.07500000000000284
        },
        {
          "name": "C4",
          "midi": 60,
          "time": 63.00000000000052,
          "velocity": 0.7874015748031497,
          "duration": 0.07500000000000284
        },
        {
          "name": "G#3",
          "midi": 56,
          "time": 63.150000000000524,
          "velocity": 0.7874015748031497,
          "duration": 0.07500000000000284
        },
        {
          "name": "C4",
          "midi": 60,
          "time": 63.150000000000524,
          "velocity": 0.7874015748031497,
          "duration": 0.07500000000000284
        },
        {
          "name": "G#3",
          "midi": 56,
          "time": 63.45000000000053,
          "velocity": 0.7874015748031497,
          "duration": 0.07500000000000284
        },
        {
          "name": "C4",
          "midi": 60,
          "time": 63.45000000000053,
          "velocity": 0.7874015748031497,
          "duration": 0.07500000000000284
        },
        {
          "name": "G#3",
          "midi": 56,
          "time": 63.75000000000053,
          "velocity": 0.7874015748031497,
          "duration": 0.07500000000000284
        },
        {
          "name": "G#3",
          "midi": 56,
          "time": 63.90000000000054,
          "velocity": 0.7874015748031497,
          "duration": 0.07500000000000284
        },
        {
          "name": "F3",
          "midi": 53,
          "time": 64.05000000000054,
          "velocity": 0.7874015748031497,
          "duration": 0.07500000000000284
        },
        {
          "name": "F3",
          "midi": 53,
          "time": 64.20000000000054,
          "velocity": 0.7874015748031497,
          "duration": 0.07500000000000284
        },
        {
          "name": "F3",
          "midi": 53,
          "time": 64.35000000000055,
          "velocity": 0.7874015748031497,
          "duration": 0.07500000000000284
        },
        {
          "name": "F3",
          "midi": 53,
          "time": 64.50000000000055,
          "velocity": 0.7874015748031497,
          "duration": 0.07500000000000284
        },
        {
          "name": "F3",
          "midi": 53,
          "time": 64.65000000000056,
          "velocity": 0.7874015748031497,
          "duration": 0.07500000000000284
        },
        {
          "name": "F3",
          "midi": 53,
          "time": 64.80000000000057,
          "velocity": 0.7874015748031497,
          "duration": 0.07500000000000284
        },
        {
          "name": "F3",
          "midi": 53,
          "time": 65.10000000000056,
          "velocity": 0.7874015748031497,
          "duration": 0.07500000000000284
        },
        {
          "name": "C4",
          "midi": 60,
          "time": 65.40000000000056,
          "velocity": 0.7874015748031497,
          "duration": 0.07500000000000284
        },
        {
          "name": "G#3",
          "midi": 56,
          "time": 65.40000000000056,
          "velocity": 0.7874015748031497,
          "duration": 0.07500000000000284
        },
        {
          "name": "C4",
          "midi": 60,
          "time": 65.55000000000057,
          "velocity": 0.7874015748031497,
          "duration": 0.07500000000000284
        },
        {
          "name": "G#3",
          "midi": 56,
          "time": 65.55000000000057,
          "velocity": 0.7874015748031497,
          "duration": 0.07500000000000284
        },
        {
          "name": "B3",
          "midi": 59,
          "time": 65.85000000000056,
          "velocity": 0.7874015748031497,
          "duration": 0.07500000000000284
        },
        {
          "name": "G#3",
          "midi": 56,
          "time": 65.85000000000056,
          "velocity": 0.7874015748031497,
          "duration": 0.07500000000000284
        },
        {
          "name": "A#3",
          "midi": 58,
          "time": 66.00000000000057,
          "velocity": 0.7874015748031497,
          "duration": 0.07500000000000284
        },
        {
          "name": "G#3",
          "midi": 56,
          "time": 66.00000000000057,
          "velocity": 0.7874015748031497,
          "duration": 0.07500000000000284
        },
        {
          "name": "G#3",
          "midi": 56,
          "time": 66.15000000000057,
          "velocity": 0.7874015748031497,
          "duration": 0.07500000000000284
        },
        {
          "name": "A3",
          "midi": 57,
          "time": 66.30000000000058,
          "velocity": 0.7874015748031497,
          "duration": 0.07500000000000284
        },
        {
          "name": "C4",
          "midi": 60,
          "time": 66.30000000000058,
          "velocity": 0.7874015748031497,
          "duration": 0.07500000000000284
        },
        {
          "name": "D#4",
          "midi": 63,
          "time": 66.45000000000059,
          "velocity": 0.7874015748031497,
          "duration": 0.07500000000000284
        },
        {
          "name": "C4",
          "midi": 60,
          "time": 66.45000000000059,
          "velocity": 0.7874015748031497,
          "duration": 0.07500000000000284
        },
        {
          "name": "D#4",
          "midi": 63,
          "time": 67.20000000000059,
          "velocity": 0.7874015748031497,
          "duration": 0.07500000000000284
        },
        {
          "name": "C4",
          "midi": 60,
          "time": 67.20000000000059,
          "velocity": 0.7874015748031497,
          "duration": 0.07500000000000284
        },
        {
          "name": "G#3",
          "midi": 56,
          "time": 67.35000000000059,
          "velocity": 0.7874015748031497,
          "duration": 0.07500000000000284
        },
        {
          "name": "C4",
          "midi": 60,
          "time": 67.35000000000059,
          "velocity": 0.7874015748031497,
          "duration": 0.07500000000000284
        },
        {
          "name": "D#4",
          "midi": 63,
          "time": 67.5000000000006,
          "velocity": 0.7874015748031497,
          "duration": 0.07500000000000284
        },
        {
          "name": "C4",
          "midi": 60,
          "time": 67.5000000000006,
          "velocity": 0.7874015748031497,
          "duration": 0.07500000000000284
        },
        {
          "name": "G#3",
          "midi": 56,
          "time": 67.6500000000006,
          "velocity": 0.7874015748031497,
          "duration": 0.07500000000000284
        },
        {
          "name": "C4",
          "midi": 60,
          "time": 67.6500000000006,
          "velocity": 0.7874015748031497,
          "duration": 0.07500000000000284
        },
        {
          "name": "D#4",
          "midi": 63,
          "time": 67.80000000000061,
          "velocity": 0.7874015748031497,
          "duration": 0.07500000000000284
        },
        {
          "name": "C4",
          "midi": 60,
          "time": 67.80000000000061,
          "velocity": 0.7874015748031497,
          "duration": 0.07500000000000284
        },
        {
          "name": "G#3",
          "midi": 56,
          "time": 67.95000000000061,
          "velocity": 0.7874015748031497,
          "duration": 0.07500000000000284
        },
        {
          "name": "C4",
          "midi": 60,
          "time": 67.95000000000061,
          "velocity": 0.7874015748031497,
          "duration": 0.07500000000000284
        },
        {
          "name": "G#3",
          "midi": 56,
          "time": 68.25000000000061,
          "velocity": 0.7874015748031497,
          "duration": 0.07500000000000284
        },
        {
          "name": "C4",
          "midi": 60,
          "time": 68.25000000000061,
          "velocity": 0.7874015748031497,
          "duration": 0.07500000000000284
        },
        {
          "name": "G#3",
          "midi": 56,
          "time": 68.55000000000061,
          "velocity": 0.7874015748031497,
          "duration": 0.07500000000000284
        },
        {
          "name": "G#3",
          "midi": 56,
          "time": 68.70000000000061,
          "velocity": 0.7874015748031497,
          "duration": 0.07500000000000284
        },
        {
          "name": "F3",
          "midi": 53,
          "time": 68.85000000000062,
          "velocity": 0.7874015748031497,
          "duration": 0.07500000000000284
        },
        {
          "name": "F3",
          "midi": 53,
          "time": 69.00000000000063,
          "velocity": 0.7874015748031497,
          "duration": 0.07500000000000284
        },
        {
          "name": "F3",
          "midi": 53,
          "time": 69.15000000000063,
          "velocity": 0.7874015748031497,
          "duration": 0.07500000000000284
        },
        {
          "name": "F3",
          "midi": 53,
          "time": 69.30000000000064,
          "velocity": 0.7874015748031497,
          "duration": 0.07500000000000284
        },
        {
          "name": "F3",
          "midi": 53,
          "time": 69.45000000000064,
          "velocity": 0.7874015748031497,
          "duration": 0.07500000000000284
        },
        {
          "name": "F3",
          "midi": 53,
          "time": 69.60000000000065,
          "velocity": 0.7874015748031497,
          "duration": 0.07500000000000284
        },
        {
          "name": "F3",
          "midi": 53,
          "time": 69.90000000000065,
          "velocity": 0.7874015748031497,
          "duration": 0.07500000000000284
        },
        {
          "name": "C4",
          "midi": 60,
          "time": 70.20000000000064,
          "velocity": 0.7874015748031497,
          "duration": 0.07500000000000284
        },
        {
          "name": "G#3",
          "midi": 56,
          "time": 70.20000000000064,
          "velocity": 0.7874015748031497,
          "duration": 0.07500000000000284
        },
        {
          "name": "C4",
          "midi": 60,
          "time": 70.35000000000065,
          "velocity": 0.7874015748031497,
          "duration": 0.07500000000000284
        },
        {
          "name": "G#3",
          "midi": 56,
          "time": 70.35000000000065,
          "velocity": 0.7874015748031497,
          "duration": 0.07500000000000284
        },
        {
          "name": "B3",
          "midi": 59,
          "time": 70.65000000000065,
          "velocity": 0.7874015748031497,
          "duration": 0.07500000000000284
        },
        {
          "name": "G#3",
          "midi": 56,
          "time": 70.65000000000065,
          "velocity": 0.7874015748031497,
          "duration": 0.07500000000000284
        },
        {
          "name": "A#3",
          "midi": 58,
          "time": 70.80000000000065,
          "velocity": 0.7874015748031497,
          "duration": 0.07500000000000284
        },
        {
          "name": "G#3",
          "midi": 56,
          "time": 70.80000000000065,
          "velocity": 0.7874015748031497,
          "duration": 0.07500000000000284
        },
        {
          "name": "G#3",
          "midi": 56,
          "time": 70.95000000000066,
          "velocity": 0.7874015748031497,
          "duration": 0.07500000000000284
        },
        {
          "name": "A3",
          "midi": 57,
          "time": 71.10000000000066,
          "velocity": 0.7874015748031497,
          "duration": 0.07500000000000284
        },
        {
          "name": "C4",
          "midi": 60,
          "time": 71.10000000000066,
          "velocity": 0.7874015748031497,
          "duration": 0.07500000000000284
        },
        {
          "name": "D#4",
          "midi": 63,
          "time": 71.25000000000067,
          "velocity": 0.7874015748031497,
          "duration": 0.07500000000000284
        },
        {
          "name": "C4",
          "midi": 60,
          "time": 71.25000000000067,
          "velocity": 0.7874015748031497,
          "duration": 0.07500000000000284
        },
        {
          "name": "B3",
          "midi": 59,
          "time": 71.55000000000067,
          "velocity": 0.7874015748031497,
          "duration": 0.07500000000000284
        },
        {
          "name": "D4",
          "midi": 62,
          "time": 71.55000000000067,
          "velocity": 0.7874015748031497,
          "duration": 0.07500000000000284
        },
        {
          "name": "B3",
          "midi": 59,
          "time": 71.70000000000067,
          "velocity": 0.7874015748031497,
          "duration": 0.07500000000000284
        },
        {
          "name": "C#4",
          "midi": 61,
          "time": 71.70000000000067,
          "velocity": 0.7874015748031497,
          "duration": 0.07500000000000284
        },
        {
          "name": "B3",
          "midi": 59,
          "time": 71.85000000000068,
          "velocity": 0.7874015748031497,
          "duration": 0.07500000000000284
        },
        {
          "name": "D#4",
          "midi": 63,
          "time": 72.00000000000068,
          "velocity": 0.7874015748031497,
          "duration": 0.07500000000000284
        },
        {
          "name": "C4",
          "midi": 60,
          "time": 72.00000000000068,
          "velocity": 0.7874015748031497,
          "duration": 0.07500000000000284
        },
        {
          "name": "D#4",
          "midi": 63,
          "time": 72.15000000000069,
          "velocity": 0.7874015748031497,
          "duration": 0.07500000000000284
        },
        {
          "name": "F#4",
          "midi": 66,
          "time": 72.15000000000069,
          "velocity": 0.7874015748031497,
          "duration": 0.07500000000000284
        },
        {
          "name": "F4",
          "midi": 65,
          "time": 72.45000000000068,
          "velocity": 0.7874015748031497,
          "duration": 0.07500000000000284
        },
        {
          "name": "D4",
          "midi": 62,
          "time": 72.45000000000068,
          "velocity": 0.7874015748031497,
          "duration": 0.07500000000000284
        },
        {
          "name": "E4",
          "midi": 64,
          "time": 72.60000000000069,
          "velocity": 0.7874015748031497,
          "duration": 0.07500000000000284
        },
        {
          "name": "D4",
          "midi": 62,
          "time": 72.60000000000069,
          "velocity": 0.7874015748031497,
          "duration": 0.07500000000000284
        },
        {
          "name": "D4",
          "midi": 62,
          "time": 72.7500000000007,
          "velocity": 0.7874015748031497,
          "duration": 0.07500000000000284
        },
        {
          "name": "D#4",
          "midi": 63,
          "time": 72.9000000000007,
          "velocity": 0.7874015748031497,
          "duration": 0.07500000000000284
        },
        {
          "name": "F#4",
          "midi": 66,
          "time": 72.9000000000007,
          "velocity": 0.7874015748031497,
          "duration": 0.07500000000000284
        },
        {
          "name": "A4",
          "midi": 69,
          "time": 73.05000000000071,
          "velocity": 0.7874015748031497,
          "duration": 0.07500000000000284
        },
        {
          "name": "F#4",
          "midi": 66,
          "time": 73.05000000000071,
          "velocity": 0.7874015748031497,
          "duration": 0.07500000000000284
        }
      ],
      "controlChanges": {},
      "id": 2,
      "name": "Piano",
      "channelNumber": 0,
      "isPercussion": false
    },
    {
      "startTime": 12,
      "duration": 72.60000000000002,
      "length": 50,
      "notes": [
        {
          "name": "G#3",
          "midi": 56,
          "time": 12,
          "velocity": 0.7874015748031497,
          "duration": 0.5999999999999996
        },
        {
          "name": "E3",
          "midi": 52,
          "time": 13.2,
          "velocity": 0.7874015748031497,
          "duration": 0.5999999999999996
        },
        {
          "name": "C#3",
          "midi": 49,
          "time": 14.399999999999999,
          "velocity": 0.7874015748031497,
          "duration": 0.5999999999999996
        },
        {
          "name": "E3",
          "midi": 52,
          "time": 15.599999999999998,
          "velocity": 0.7874015748031497,
          "duration": 0.6000000000000014
        },
        {
          "name": "G#3",
          "midi": 56,
          "time": 16.8,
          "velocity": 0.7874015748031497,
          "duration": 0.6000000000000014
        },
        {
          "name": "E3",
          "midi": 52,
          "time": 18.000000000000004,
          "velocity": 0.7874015748031497,
          "duration": 0.6000000000000014
        },
        {
          "name": "C#3",
          "midi": 49,
          "time": 19.200000000000006,
          "velocity": 0.7874015748031497,
          "duration": 0.6000000000000014
        },
        {
          "name": "E3",
          "midi": 52,
          "time": 20.40000000000001,
          "velocity": 0.7874015748031497,
          "duration": 0.6000000000000014
        },
        {
          "name": "G#3",
          "midi": 56,
          "time": 21.600000000000012,
          "velocity": 0.7874015748031497,
          "duration": 0.6000000000000014
        },
        {
          "name": "E3",
          "midi": 52,
          "time": 22.800000000000015,
          "velocity": 0.7874015748031497,
          "duration": 0.6000000000000014
        },
        {
          "name": "C#3",
          "midi": 49,
          "time": 24.000000000000018,
          "velocity": 0.7874015748031497,
          "duration": 0.6000000000000014
        },
        {
          "name": "E3",
          "midi": 52,
          "time": 25.20000000000002,
          "velocity": 0.7874015748031497,
          "duration": 0.6000000000000014
        },
        {
          "name": "G#3",
          "midi": 56,
          "time": 26.400000000000023,
          "velocity": 0.7874015748031497,
          "duration": 0.6000000000000014
        },
        {
          "name": "E3",
          "midi": 52,
          "time": 27.600000000000026,
          "velocity": 0.7874015748031497,
          "duration": 0.6000000000000014
        },
        {
          "name": "C#3",
          "midi": 49,
          "time": 28.80000000000003,
          "velocity": 0.7874015748031497,
          "duration": 0.6000000000000014
        },
        {
          "name": "E3",
          "midi": 52,
          "time": 30.000000000000032,
          "velocity": 0.7874015748031497,
          "duration": 0.6000000000000014
        },
        {
          "name": "G#3",
          "midi": 56,
          "time": 31.200000000000035,
          "velocity": 0.7874015748031497,
          "duration": 0.6000000000000014
        },
        {
          "name": "E3",
          "midi": 52,
          "time": 32.400000000000034,
          "velocity": 0.7874015748031497,
          "duration": 0.6000000000000014
        },
        {
          "name": "C#3",
          "midi": 49,
          "time": 33.60000000000004,
          "velocity": 0.7874015748031497,
          "duration": 0.6000000000000014
        },
        {
          "name": "E3",
          "midi": 52,
          "time": 34.80000000000004,
          "velocity": 0.7874015748031497,
          "duration": 0.6000000000000014
        },
        {
          "name": "G#3",
          "midi": 56,
          "time": 36.00000000000004,
          "velocity": 0.7874015748031497,
          "duration": 0.6000000000000014
        },
        {
          "name": "E3",
          "midi": 52,
          "time": 37.200000000000045,
          "velocity": 0.7874015748031497,
          "duration": 0.6000000000000014
        },
        {
          "name": "C#3",
          "midi": 49,
          "time": 38.40000000000005,
          "velocity": 0.7874015748031497,
          "duration": 0.6000000000000014
        },
        {
          "name": "E3",
          "midi": 52,
          "time": 39.60000000000005,
          "velocity": 0.7874015748031497,
          "duration": 0.6000000000000014
        },
        {
          "name": "G#3",
          "midi": 56,
          "time": 40.800000000000054,
          "velocity": 0.7874015748031497,
          "duration": 0.6000000000000014
        },
        {
          "name": "E3",
          "midi": 52,
          "time": 42.00000000000006,
          "velocity": 0.7874015748031497,
          "duration": 0.6000000000000014
        },
        {
          "name": "C#3",
          "midi": 49,
          "time": 43.20000000000006,
          "velocity": 0.7874015748031497,
          "duration": 0.6000000000000014
        },
        {
          "name": "E3",
          "midi": 52,
          "time": 44.40000000000006,
          "velocity": 0.7874015748031497,
          "duration": 0.6000000000000014
        },
        {
          "name": "G#3",
          "midi": 56,
          "time": 45.600000000000065,
          "velocity": 0.7874015748031497,
          "duration": 0.6000000000000014
        },
        {
          "name": "E3",
          "midi": 52,
          "time": 46.80000000000007,
          "velocity": 0.7874015748031497,
          "duration": 0.6000000000000014
        },
        {
          "name": "C#3",
          "midi": 49,
          "time": 48.00000000000007,
          "velocity": 0.7874015748031497,
          "duration": 0.6000000000000014
        },
        {
          "name": "E3",
          "midi": 52,
          "time": 49.200000000000074,
          "velocity": 0.7874015748031497,
          "duration": 0.6000000000000014
        },
        {
          "name": "G3",
          "midi": 55,
          "time": 50.40000000000008,
          "velocity": 0.7874015748031497,
          "duration": 0.6000000000000014
        },
        {
          "name": "G#3",
          "midi": 56,
          "time": 52.800000000000075,
          "velocity": 0.7874015748031497,
          "duration": 0.6000000000000014
        },
        {
          "name": "E3",
          "midi": 52,
          "time": 54.00000000000008,
          "velocity": 0.7874015748031497,
          "duration": 0.6000000000000014
        },
        {
          "name": "C#3",
          "midi": 49,
          "time": 55.20000000000008,
          "velocity": 0.7874015748031497,
          "duration": 0.6000000000000014
        },
        {
          "name": "E3",
          "midi": 52,
          "time": 56.400000000000084,
          "velocity": 0.7874015748031497,
          "duration": 0.6000000000000014
        },
        {
          "name": "G#3",
          "midi": 56,
          "time": 57.60000000000009,
          "velocity": 0.7874015748031497,
          "duration": 0.6000000000000014
        },
        {
          "name": "E3",
          "midi": 52,
          "time": 58.80000000000009,
          "velocity": 0.7874015748031497,
          "duration": 0.6000000000000014
        },
        {
          "name": "C#3",
          "midi": 49,
          "time": 60.00000000000009,
          "velocity": 0.7874015748031497,
          "duration": 0.6000000000000014
        },
        {
          "name": "E3",
          "midi": 52,
          "time": 61.200000000000095,
          "velocity": 0.7874015748031497,
          "duration": 0.6000000000000014
        },
        {
          "name": "G#3",
          "midi": 56,
          "time": 62.4000000000001,
          "velocity": 0.7874015748031497,
          "duration": 0.6000000000000014
        },
        {
          "name": "E3",
          "midi": 52,
          "time": 63.6000000000001,
          "velocity": 0.7874015748031497,
          "duration": 0.6000000000000014
        },
        {
          "name": "C#3",
          "midi": 49,
          "time": 64.8000000000001,
          "velocity": 0.7874015748031497,
          "duration": 0.5999999999999943
        },
        {
          "name": "E3",
          "midi": 52,
          "time": 66.00000000000009,
          "velocity": 0.7874015748031497,
          "duration": 0.5999999999999943
        },
        {
          "name": "G#3",
          "midi": 56,
          "time": 67.20000000000007,
          "velocity": 0.7874015748031497,
          "duration": 0.5999999999999943
        },
        {
          "name": "E3",
          "midi": 52,
          "time": 68.40000000000006,
          "velocity": 0.7874015748031497,
          "duration": 0.5999999999999943
        },
        {
          "name": "C#3",
          "midi": 49,
          "time": 69.60000000000005,
          "velocity": 0.7874015748031497,
          "duration": 0.5999999999999943
        },
        {
          "name": "E3",
          "midi": 52,
          "time": 70.80000000000004,
          "velocity": 0.7874015748031497,
          "duration": 0.5999999999999943
        },
        {
          "name": "G3",
          "midi": 55,
          "time": 72.00000000000003,
          "velocity": 0.7874015748031497,
          "duration": 0.5999999999999943
        }
      ],
      "controlChanges": {},
      "id": 3,
      "name": "Bass",
      "channelNumber": 0,
      "isPercussion": false
    }
  ]
}