{
  "header": {
    "PPQ": 960,
    "timeSignature": [
      4,
      4
    ],
    "bpm": 128,
    "name": "Track 7"
  },
  "tempo": [
    {
      "absoluteTime": 0,
      "seconds": 0,
      "bpm": 128
    }
  ],
  "timeSignature": [
    {
      "absoluteTime": 0,
      "seconds": 0,
      "numerator": 4,
      "denominator": 2,
      "click": 24,
      "notesQ": 8
    }
  ],
  "startTime": 0,
  "duration": 75,
  "tracks": [
    {
      "startTime": 0,
      "duration": 0,
      "length": 0,
      "notes": [],
      "controlChanges": {},
      "id": 0
    },
    {
      "startTime": 9.375,
      "duration": 68.0859375,
      "length": 68,
      "notes": [
        {
          "name": "D3",
          "midi": 50,
          "time": 9.375,
          "velocity": 0.7874015748031497,
          "duration": 0.1171875
        },
        {
          "name": "C3",
          "midi": 48,
          "time": 9.7265625,
          "velocity": 0.7874015748031497,
          "duration": 0.1171875
        },
        {
          "name": "A2",
          "midi": 45,
          "time": 10.78125,
          "velocity": 0.7874015748031497,
          "duration": 0.1171875
        },
        {
          "name": "A2",
          "midi": 45,
          "time": 11.71875,
          "velocity": 0.7874015748031497,
          "duration": 0.1171875
        },
        {
          "name": "A2",
          "midi": 45,
          "time": 12.65625,
          "velocity": 0.7874015748031497,
          "duration": 0.1171875
        },
        {
          "name": "A2",
          "midi": 45,
          "time": 13.59375,
          "velocity": 0.7874015748031497,
          "duration": 0.1171875
        },
        {
          "name": "A2",
          "midi": 45,
          "time": 14.53125,
          "velocity": 0.7874015748031497,
          "duration": 0.1171875
        },
        {
          "name": "A2",
          "midi": 45,
          "time": 15.46875,
          "velocity": 0.7874015748031497,
          "duration": 0.1171875
        },
        {
          "name": "A2",
          "midi": 45,
          "time": 16.40625,
          "velocity": 0.7874015748031497,
          "duration": 0.1171875
        },
        {
          "name": "D3",
          "midi": 50,
          "time": 17.34375,
          "velocity": 0.7874015748031497,
          "duration": 0.1171875
        },
        {
          "name": "C3",
          "midi": 48,
          "time": 17.6953125,
          "velocity": 0.7874015748031497,
          "duration": 0.1171875
        },
        {
          "name": "A2",
          "midi": 45,
          "time": 18.75,
          "velocity": 0.7874015748031497,
          "duration": 0.1171875
        },
        {
          "name": "A2",
          "midi": 45,
          "time": 19.6875,
          "velocity": 0.7874015748031497,
          "duration": 0.1171875
        },
        {
          "name": "A2",
          "midi": 45,
          "time": 20.625,
          "velocity": 0.7874015748031497,
          "duration": 0.1171875
        },
        {
          "name": "A2",
          "midi": 45,
          "time": 21.5625,
          "velocity": 0.7874015748031497,
          "duration": 0.1171875
        },
        {
          "name": "A2",
          "midi": 45,
          "time": 22.5,
          "velocity": 0.7874015748031497,
          "duration": 0.1171875
        },
        {
          "name": "A2",
          "midi": 45,
          "time": 23.4375,
          "velocity": 0.7874015748031497,
          "duration": 0.1171875
        },
        {
          "name": "A2",
          "midi": 45,
          "time": 24.375,
          "velocity": 0.7874015748031497,
          "duration": 0.1171875
        },
        {
          "name": "D3",
          "midi": 50,
          "time": 25.3125,
          "velocity": 0.7874015748031497,
          "duration": 0.1171875
        },
        {
          "name": "C3",
          "midi": 48,
          "time": 25.6640625,
          "velocity": 0.7874015748031497,
          "duration": 0.1171875
        },
        {
          "name": "A2",
          "midi": 45,
          "time": 26.71875,
          "velocity": 0.7874015748031497,
          "duration": 0.1171875
        },
        {
          "name": "A2",
          "midi": 45,
          "time": 27.65625,
          "velocity": 0.7874015748031497,
          "duration": 0.1171875
        },
        {
          "name": "A2",
          "midi": 45,
          "time": 28.59375,
          "velocity": 0.7874015748031497,
          "duration": 0.1171875
        },
        {
          "name": "A2",
          "midi": 45,
          "time": 29.53125,
          "velocity": 0.7874015748031497,
          "duration": 0.1171875
        },
        {
          "name": "A2",
          "midi": 45,
          "time": 30.46875,
          "velocity": 0.7874015748031497,
          "duration": 0.1171875
        },
        {
          "name": "A2",
          "midi": 45,
          "time": 31.40625,
          "velocity": 0.7874015748031497,
          "duration": 0.1171875
        },
        {
          "name": "A2",
          "midi": 45,
          "time": 32.34375,
          "velocity": 0.7874015748031497,
          "duration": 0.1171875
        },
        {
          "name": "A2",
          "midi": 45,
          "time": 33.28125,
          "velocity": 0.7874015748031497,
          "duration": 0.1171875
        },
        {
          "name": "A2",
          "midi": 45,
          "time": 34.21875,
          "velocity": 0.7874015748031497,
          "duration": 0.1171875
        },
        {
          "name": "A2",
          "midi": 45,
          "time": 35.15625,
          "velocity": 0.7874015748031497,
          "duration": 0.1171875
        },
        {
          "name": "A2",
          "midi": 45,
          "time": 36.09375,
          "velocity": 0.7874015748031497,
          "duration": 0.1171875
        },
        {
          "name": "A2",
          "midi": 45,
          "time": 37.03125,
          "velocity": 0.7874015748031497,
          "duration": 0.1171875
        },
        {
          "name": "A2",
          "midi": 45,
          "time": 37.96875,
          "velocity": 0.7874015748031497,
          "duration": 0.1171875
        },
        {
          "name": "A2",
          "midi": 45,
          "time": 38.90625,
          "velocity": 0.7874015748031497,
          "duration": 0.1171875
        },
        {
          "name": "A2",
          "midi": 45,
          "time": 39.84375,
          "velocity": 0.7874015748031497,
          "duration": 0.1171875
        },
        {
          "name": "D3",
          "midi": 50,
          "time": 40.78125,
          "velocity": 0.7874015748031497,
          "duration": 0.1171875
        },
        {
          "name": "C3",
          "midi": 48,
          "time": 41.1328125,
          "velocity": 0.7874015748031497,
          "duration": 0.1171875
        },
        {
          "name": "A2",
          "midi": 45,
          "time": 42.1875,
          "velocity": 0.7874015748031497,
          "duration": 0.1171875
        },
        {
          "name": "A2",
          "midi": 45,
          "time": 43.125,
          "velocity": 0.7874015748031497,
          "duration": 0.1171875
        },
        {
          "name": "A2",
          "midi": 45,
          "time": 44.0625,
          "velocity": 0.7874015748031497,
          "duration": 0.1171875
        },
        {
          "name": "A2",
          "midi": 45,
          "time": 45,
          "velocity": 0.7874015748031497,
          "duration": 0.1171875
        },
        {
          "name": "A2",
          "midi": 45,
          "time": 45.9375,
          "velocity": 0.7874015748031497,
          "duration": 0.1171875
        },
        {
          "name": "A2",
          "midi": 45,
          "time": 46.875,
          "velocity": 0.7874015748031497,
          "duration": 0.1171875
        },
        {
          "name": "A2",
          "midi": 45,
          "time": 47.8125,
          "velocity": 0.7874015748031497,
          "duration": 0.1171875
        },
        {
          "name": "A2",
          "midi": 45,
          "time": 48.75,
          "velocity": 0.7874015748031497,
          "duration": 0.1171875
        },
        {
          "name": "A2",
          "midi": 45,
          "time": 49.6875,
          "velocity": 0.7874015748031497,
          "duration": 0.1171875
        },
        {
          "name": "A2",
          "midi": 45,
          "time": 50.625,
          "velocity": 0.7874015748031497,
          "duration": 0.1171875
        },
        {
          "name": "A2",
          "midi": 45,
          "time": 51.5625,
          "velocity": 0.7874015748031497,
          "duration": 0.1171875
        },
        {
          "name": "A2",
          "midi": 45,
          "time": 52.5,
          "velocity": 0.7874015748031497,
          "duration": 0.1171875
        },
        {
          "name": "A2",
          "midi": 45,
          "time": 53.4375,
          "velocity": 0.7874015748031497,
          "duration": 0.1171875
        },
        {
          "name": "A2",
          "midi": 45,
          "time": 54.375,
          "velocity": 0.7874015748031497,
          "duration": 0.1171875
        },
        {
          "name": "A2",
          "midi": 45,
          "time": 55.3125,
          "velocity": 0.7874015748031497,
          "duration": 0.1171875
        },
        {
          "name": "D3",
          "midi": 50,
          "time": 56.25,
          "velocity": 0.7874015748031497,
          "duration": 0.1171875
        },
        {
          "name": "C3",
          "midi": 48,
          "time": 56.6015625,
          "velocity": 0.7874015748031497,
          "duration": 0.1171875
        },
        {
          "name": "A2",
          "midi": 45,
          "time": 57.65625,
          "velocity": 0.7874015748031497,
          "duration": 0.1171875
        },
        {
          "name": "A2",
          "midi": 45,
          "time": 58.59375,
          "velocity": 0.7874015748031497,
          "duration": 0.1171875
        },
        {
          "name": "A2",
          "midi": 45,
          "time": 59.53125,
          "velocity": 0.7874015748031497,
          "duration": 0.1171875
        },
        {
          "name": "A2",
          "midi": 45,
          "time": 60.46875,
          "velocity": 0.7874015748031497,
          "duration": 0.1171875
        },
        {
          "name": "A2",
          "midi": 45,
          "time": 61.40625,
          "velocity": 0.7874015748031497,
          "duration": 0.1171875
        },
        {
          "name": "A2",
          "midi": 45,
          "time": 62.34375,
          "velocity": 0.7874015748031497,
          "duration": 0.1171875
        },
        {
          "name": "A2",
          "midi": 45,
          "time": 63.28125,
          "velocity": 0.7874015748031497,
          "duration": 0.1171875
        },
        {
          "name": "D3",
          "midi": 50,
          "time": 64.21875,
          "velocity": 0.7874015748031497,
          "duration": 0.1171875
        },
        {
          "name": "C3",
          "midi": 48,
          "time": 64.5703125,
          "velocity": 0.7874015748031497,
          "duration": 0.1171875
        },
        {
          "name": "D3",
          "midi": 50,
          "time": 65.625,
          "velocity": 0.7874015748031497,
          "duration": 0.1171875
        },
        {
          "name": "C3",
          "midi": 48,
          "time": 65.9765625,
          "velocity": 0.7874015748031497,
          "duration": 0.1171875
        },
        {
          "name": "D3",
          "midi": 50,
          "time": 67.03125,
          "velocity": 0.7874015748031497,
          "duration": 0.1171875
        },
        {
          "name": "C3",
          "midi": 48,
          "time": 67.3828125,
          "velocity": 0.7874015748031497,
          "duration": 0.1171875
        },
        {
          "name": "A2",
          "midi": 45,
          "time": 67.96875,
          "velocity": 0.7874015748031497,
          "duration": 0.1171875
        }
      ],
      "controlChanges": {},
      "id": 1,
      "name": "DRUM_BASS",
      "channelNumber": 0,
      "isPercussion": false
    },
    {
      "startTime": 0,
      "duration": 75,
      "length": 40,
      "notes": [
        {
          "name": "G4",
          "midi": 67,
          "time": 0,
          "velocity": 0.7874015748031497,
          "duration": 1.875
        },
        {
          "name": "B4",
          "midi": 71,
          "time": 1.875,
          "velocity": 0.7874015748031497,
          "duration": 1.875
        },
        {
          "name": "A4",
          "midi": 69,
          "time": 3.75,
          "velocity": 0.7874015748031497,
          "duration": 1.875
        },
        {
          "name": "G4",
          "midi": 67,
          "time": 5.625,
          "velocity": 0.7874015748031497,
          "duration": 1.875
        },
        {
          "name": "G4",
          "midi": 67,
          "time": 7.5,
          "velocity": 0.7874015748031497,
          "duration": 1.875
        },
        {
          "name": "B4",
          "midi": 71,
          "time": 9.375,
          "velocity": 0.7874015748031497,
          "duration": 1.875
        },
        {
          "name": "A4",
          "midi": 69,
          "time": 11.25,
          "velocity": 0.7874015748031497,
          "duration": 1.875
        },
        {
          "name": "G4",
          "midi": 67,
          "time": 13.125,
          "velocity": 0.7874015748031497,
          "duration": 1.875
        },
        {
          "name": "G4",
          "midi": 67,
          "time": 15,
          "velocity": 0.7874015748031497,
          "duration": 1.875
        },
        {
          "name": "B4",
          "midi": 71,
          "time": 16.875,
          "velocity": 0.7874015748031497,
          "duration": 1.875
        },
        {
          "name": "A4",
          "midi": 69,
          "time": 18.75,
          "velocity": 0.7874015748031497,
          "duration": 1.875
        },
        {
          "name": "G4",
          "midi": 67,
          "time": 20.625,
          "velocity": 0.7874015748031497,
          "duration": 1.875
        },
        {
          "name": "G4",
          "midi": 67,
          "time": 22.5,
          "velocity": 0.7874015748031497,
          "duration": 1.875
        },
        {
          "name": "B4",
          "midi": 71,
          "time": 24.375,
          "velocity": 0.7874015748031497,
          "duration": 1.875
        },
        {
          "name": "A4",
          "midi": 69,
          "time": 26.25,
          "velocity": 0.7874015748031497,
          "duration": 1.875
        },
        {
          "name": "G4",
          "midi": 67,
          "time": 28.125,
          "velocity": 0.7874015748031497,
          "duration": 1.875
        },
        {
          "name": "G4",
          "midi": 67,
          "time": 30,
          "velocity": 0.7874015748031497,
          "duration": 1.875
        },
        {
          "name": "B4",
          "midi": 71,
          "time": 31.875,
          "velocity": 0.7874015748031497,
          "duration": 1.875
        },
        {
          "name": "A4",
          "midi": 69,
          "time": 33.75,
          "velocity": 0.7874015748031497,
          "duration": 1.875
        },
        {
          "name": "G4",
          "midi": 67,
          "time": 35.625,
          "velocity": 0.7874015748031497,
          "duration": 1.875
        },
        {
          "name": "G4",
          "midi": 67,
          "time": 37.5,
          "velocity": 0.7874015748031497,
          "duration": 1.875
        },
        {
          "name": "B4",
          "midi": 71,
          "time": 39.375,
          "velocity": 0.7874015748031497,
          "duration": 1.875
        },
        {
          "name": "A4",
          "midi": 69,
          "time": 41.25,
          "velocity": 0.7874015748031497,
          "duration": 1.875
        },
        {
          "name": "G4",
          "midi": 67,
          "time": 43.125,
          "velocity": 0.7874015748031497,
          "duration": 1.875
        },
        {
          "name": "G4",
          "midi": 67,
          "time": 45,
          "velocity": 0.7874015748031497,
          "duration": 1.875
        },
        {
          "name": "B4",
          "midi": 71,
          "time": 46.875,
          "velocity": 0.7874015748031497,
          "duration": 1.875
        },
        {
          "name": "A4",
          "midi": 69,
          "time": 48.75,
          "velocity": 0.7874015748031497,
          "duration": 1.875
        },
        {
          "name": "G4",
          "midi": 67,
          "time": 50.625,
          "velocity": 0.7874015748031497,
          "duration": 1.875
        },
        {
          "name": "G4",
          "midi": 67,
          "time": 52.5,
          "velocity": 0.7874015748031497,
          "duration": 1.875
        },
        {
          "name": "B4",
          "midi": 71,
          "time": 54.375,
          "velocity": 0.7874015748031497,
          "duration": 1.875
        },
        {
          "name": "A4",
          "midi": 69,
          "time": 56.25,
          "velocity": 0.7874015748031497,
          "duration": 1.875
        },
        {
          "name": "G4",
          "midi": 67,
          "time": 58.125,
          "velocity": 0.7874015748031497,
          "duration": 1.875
        },
        {
          "name": "G4",
          "midi": 67,
          "time": 60,
          "velocity": 0.7874015748031497,
          "duration": 1.875
        },
        {
          "name": "B4",
          "midi": 71,
          "time": 61.875,
          "velocity": 0.7874015748031497,
          "duration": 1.875
        },
        {
          "name": "A4",
          "midi": 69,
          "time": 63.75,
          "velocity": 0.7874015748031497,
          "duration": 1.875
        },
        {
          "name": "G4",
          "midi": 67,
          "time": 65.625,
          "velocity": 0.7874015748031497,
          "duration": 1.875
        },
        {
          "name": "G4",
          "midi": 67,
          "time": 67.5,
          "velocity": 0.7874015748031497,
          "duration": 1.875
        },
        {
          "name": "B4",
          "midi": 71,
          "time": 69.375,
          "velocity": 0.7874015748031497,
          "duration": 1.875
        },
        {
          "name": "A4",
          "midi": 69,
          "time": 71.25,
          "velocity": 0.7874015748031497,
          "duration": 1.875
        },
        {
          "name": "G4",
          "midi": 67,
          "time": 73.125,
          "velocity": 0.7874015748031497,
          "duration": 1.875
        }
      ],
      "controlChanges": {},
      "id": 2,
      "name": "BASS_GUITAR",
      "channelNumber": 0,
      "isPercussion": false
    },
    {
      "startTime": 1.875,
      "duration": 69.4921875,
      "length": 259,
      "notes": [
        {
          "name": "G4",
          "midi": 67,
          "time": 1.875,
          "velocity": 0.7874015748031497,
          "duration": 0.234375
        },
        {
          "name": "B4",
          "midi": 71,
          "time": 2.34375,
          "velocity": 0.7874015748031497,
          "duration": 0.234375
        },
        {
          "name": "A4",
          "midi": 69,
          "time": 2.6953125,
          "velocity": 0.7874015748031497,
          "duration": 0.1171875
        },
        {
          "name": "G4",
          "midi": 67,
          "time": 2.8125,
          "velocity": 0.7874015748031497,
          "duration": 0.1171875
        },
        {
          "name": "F4",
          "midi": 65,
          "time": 3.046875,
          "velocity": 0.7874015748031497,
          "duration": 0.234375
        },
        {
          "name": "A4",
          "midi": 69,
          "time": 3.515625,
          "velocity": 0.7874015748031497,
          "duration": 0.234375
        },
        {
          "name": "G4",
          "midi": 67,
          "time": 3.8671875,
          "velocity": 0.7874015748031497,
          "duration": 0.1171875
        },
        {
          "name": "F4",
          "midi": 65,
          "time": 3.984375,
          "velocity": 0.7874015748031497,
          "duration": 0.1171875
        },
        {
          "name": "G4",
          "midi": 67,
          "time": 4.21875,
          "velocity": 0.7874015748031497,
          "duration": 0.46875
        },
        {
          "name": "G4",
          "midi": 67,
          "time": 5.625,
          "velocity": 0.7874015748031497,
          "duration": 0.234375
        },
        {
          "name": "B4",
          "midi": 71,
          "time": 6.09375,
          "velocity": 0.7874015748031497,
          "duration": 0.234375
        },
        {
          "name": "A4",
          "midi": 69,
          "time": 6.4453125,
          "velocity": 0.7874015748031497,
          "duration": 0.1171875
        },
        {
          "name": "G4",
          "midi": 67,
          "time": 6.5625,
          "velocity": 0.7874015748031497,
          "duration": 0.1171875
        },
        {
          "name": "F4",
          "midi": 65,
          "time": 6.796875,
          "velocity": 0.7874015748031497,
          "duration": 0.234375
        },
        {
          "name": "A4",
          "midi": 69,
          "time": 7.265625,
          "velocity": 0.7874015748031497,
          "duration": 0.234375
        },
        {
          "name": "G4",
          "midi": 67,
          "time": 7.6171875,
          "velocity": 0.7874015748031497,
          "duration": 0.1171875
        },
        {
          "name": "F4",
          "midi": 65,
          "time": 7.734375,
          "velocity": 0.7874015748031497,
          "duration": 0.1171875
        },
        {
          "name": "G4",
          "midi": 67,
          "time": 7.96875,
          "velocity": 0.7874015748031497,
          "duration": 0.46875
        },
        {
          "name": "G4",
          "midi": 67,
          "time": 9.375,
          "velocity": 0.7874015748031497,
          "duration": 0.234375
        },
        {
          "name": "B4",
          "midi": 71,
          "time": 9.84375,
          "velocity": 0.7874015748031497,
          "duration": 0.234375
        },
        {
          "name": "A4",
          "midi": 69,
          "time": 10.1953125,
          "velocity": 0.7874015748031497,
          "duration": 0.1171875
        },
        {
          "name": "G4",
          "midi": 67,
          "time": 10.3125,
          "velocity": 0.7874015748031497,
          "duration": 0.1171875
        },
        {
          "name": "F4",
          "midi": 65,
          "time": 10.546875,
          "velocity": 0.7874015748031497,
          "duration": 0.234375
        },
        {
          "name": "A4",
          "midi": 69,
          "time": 11.015625,
          "velocity": 0.7874015748031497,
          "duration": 0.234375
        },
        {
          "name": "G4",
          "midi": 67,
          "time": 11.3671875,
          "velocity": 0.7874015748031497,
          "duration": 0.1171875
        },
        {
          "name": "F4",
          "midi": 65,
          "time": 11.484375,
          "velocity": 0.7874015748031497,
          "duration": 0.1171875
        },
        {
          "name": "G4",
          "midi": 67,
          "time": 11.71875,
          "velocity": 0.7874015748031497,
          "duration": 0.46875
        },
        {
          "name": "G4",
          "midi": 67,
          "time": 13.125,
          "velocity": 0.7874015748031497,
          "duration": 0.234375
        },
        {
          "name": "B4",
          "midi": 71,
          "time": 13.59375,
          "velocity": 0.7874015748031497,
          "duration": 0.234375
        },
        {
          "name": "A4",
          "midi": 69,
          "time": 13.9453125,
          "velocity": 0.7874015748031497,
          "duration": 0.1171875
        },
        {
          "name": "G4",
          "midi": 67,
          "time": 14.0625,
          "velocity": 0.7874015748031497,
          "duration": 0.1171875
        },
        {
          "name": "F4",
          "midi": 65,
          "time": 14.296875,
          "velocity": 0.7874015748031497,
          "duration": 0.234375
        },
        {
          "name": "A4",
          "midi": 69,
          "time": 14.765625,
          "velocity": 0.7874015748031497,
          "duration": 0.234375
        },
        {
          "name": "G4",
          "midi": 67,
          "time": 15.1171875,
          "velocity": 0.7874015748031497,
          "duration": 0.1171875
        },
        {
          "name": "F4",
          "midi": 65,
          "time": 15.234375,
          "velocity": 0.7874015748031497,
          "duration": 0.1171875
        },
        {
          "name": "G4",
          "midi": 67,
          "time": 15.46875,
          "velocity": 0.7874015748031497,
          "duration": 0.46875
        },
        {
          "name": "G4",
          "midi": 67,
          "time": 16.875,
          "velocity": 0.7874015748031497,
          "duration": 0.234375
        },
        {
          "name": "G4",
          "midi": 67,
          "time": 17.34375,
          "velocity": 0.7874015748031497,
          "duration": 0.1171875
        },
        {
          "name": "A4",
          "midi": 69,
          "time": 17.34375,
          "velocity": 0.7874015748031497,
          "duration": 0.1171875
        },
        {
          "name": "A4",
          "midi": 69,
          "time": 17.4609375,
          "velocity": 0.7874015748031497,
          "duration": 0.1171875
        },
        {
          "name": "B4",
          "midi": 71,
          "time": 17.4609375,
          "velocity": 0.7874015748031497,
          "duration": 0.1171875
        },
        {
          "name": "A4",
          "midi": 69,
          "time": 17.6953125,
          "velocity": 0.7874015748031497,
          "duration": 0.1171875
        },
        {
          "name": "G4",
          "midi": 67,
          "time": 17.8125,
          "velocity": 0.7874015748031497,
          "duration": 0.1171875
        },
        {
          "name": "F4",
          "midi": 65,
          "time": 18.046875,
          "velocity": 0.7874015748031497,
          "duration": 0.234375
        },
        {
          "name": "A4",
          "midi": 69,
          "time": 18.515625,
          "velocity": 0.7874015748031497,
          "duration": 0.234375
        },
        {
          "name": "G4",
          "midi": 67,
          "time": 18.8671875,
          "velocity": 0.7874015748031497,
          "duration": 0.1171875
        },
        {
          "name": "F4",
          "midi": 65,
          "time": 18.984375,
          "velocity": 0.7874015748031497,
          "duration": 0.1171875
        },
        {
          "name": "G4",
          "midi": 67,
          "time": 19.21875,
          "velocity": 0.7874015748031497,
          "duration": 0.46875
        },
        {
          "name": "A#4",
          "midi": 70,
          "time": 20.625,
          "velocity": 0.7874015748031497,
          "duration": 0.234375
        },
        {
          "name": "D#4",
          "midi": 63,
          "time": 20.625,
          "velocity": 0.7874015748031497,
          "duration": 0.234375
        },
        {
          "name": "G4",
          "midi": 67,
          "time": 20.625,
          "velocity": 0.7874015748031497,
          "duration": 0.234375
        },
        {
          "name": "G4",
          "midi": 67,
          "time": 21.09375,
          "velocity": 0.7874015748031497,
          "duration": 0.234375
        },
        {
          "name": "D5",
          "midi": 74,
          "time": 21.09375,
          "velocity": 0.7874015748031497,
          "duration": 0.234375
        },
        {
          "name": "B4",
          "midi": 71,
          "time": 21.09375,
          "velocity": 0.7874015748031497,
          "duration": 0.234375
        },
        {
          "name": "C5",
          "midi": 72,
          "time": 21.4453125,
          "velocity": 0.7874015748031497,
          "duration": 0.1171875
        },
        {
          "name": "A4",
          "midi": 69,
          "time": 21.4453125,
          "velocity": 0.7874015748031497,
          "duration": 0.1171875
        },
        {
          "name": "A#4",
          "midi": 70,
          "time": 21.5625,
          "velocity": 0.7874015748031497,
          "duration": 0.1171875
        },
        {
          "name": "G4",
          "midi": 67,
          "time": 21.5625,
          "velocity": 0.7874015748031497,
          "duration": 0.1171875
        },
        {
          "name": "G#4",
          "midi": 68,
          "time": 21.796875,
          "velocity": 0.7874015748031497,
          "duration": 0.234375
        },
        {
          "name": "F4",
          "midi": 65,
          "time": 21.796875,
          "velocity": 0.7874015748031497,
          "duration": 0.234375
        },
        {
          "name": "C#5",
          "midi": 73,
          "time": 22.265625,
          "velocity": 0.7874015748031497,
          "duration": 0.234375
        },
        {
          "name": "A4",
          "midi": 69,
          "time": 22.265625,
          "velocity": 0.7874015748031497,
          "duration": 0.234375
        },
        {
          "name": "A#4",
          "midi": 70,
          "time": 22.6171875,
          "velocity": 0.7874015748031497,
          "duration": 0.1171875
        },
        {
          "name": "G4",
          "midi": 67,
          "time": 22.6171875,
          "velocity": 0.7874015748031497,
          "duration": 0.1171875
        },
        {
          "name": "G#4",
          "midi": 68,
          "time": 22.734375,
          "velocity": 0.7874015748031497,
          "duration": 0.1171875
        },
        {
          "name": "F4",
          "midi": 65,
          "time": 22.734375,
          "velocity": 0.7874015748031497,
          "duration": 0.1171875
        },
        {
          "name": "E4",
          "midi": 64,
          "time": 22.96875,
          "velocity": 0.7874015748031497,
          "duration": 0.46875
        },
        {
          "name": "G4",
          "midi": 67,
          "time": 22.96875,
          "velocity": 0.7874015748031497,
          "duration": 0.46875
        },
        {
          "name": "A#4",
          "midi": 70,
          "time": 24.375,
          "velocity": 0.7874015748031497,
          "duration": 0.234375
        },
        {
          "name": "D#4",
          "midi": 63,
          "time": 24.375,
          "velocity": 0.7874015748031497,
          "duration": 0.234375
        },
        {
          "name": "G4",
          "midi": 67,
          "time": 24.375,
          "velocity": 0.7874015748031497,
          "duration": 0.234375
        },
        {
          "name": "G4",
          "midi": 67,
          "time": 24.84375,
          "velocity": 0.7874015748031497,
          "duration": 0.234375
        },
        {
          "name": "D5",
          "midi": 74,
          "time": 24.84375,
          "velocity": 0.7874015748031497,
          "duration": 0.234375
        },
        {
          "name": "B4",
          "midi": 71,
          "time": 24.84375,
          "velocity": 0.7874015748031497,
          "duration": 0.234375
        },
        {
          "name": "C5",
          "midi": 72,
          "time": 25.1953125,
          "velocity": 0.7874015748031497,
          "duration": 0.1171875
        },
        {
          "name": "A4",
          "midi": 69,
          "time": 25.1953125,
          "velocity": 0.7874015748031497,
          "duration": 0.1171875
        },
        {
          "name": "A#4",
          "midi": 70,
          "time": 25.3125,
          "velocity": 0.7874015748031497,
          "duration": 0.1171875
        },
        {
          "name": "G4",
          "midi": 67,
          "time": 25.3125,
          "velocity": 0.7874015748031497,
          "duration": 0.1171875
        },
        {
          "name": "G#4",
          "midi": 68,
          "time": 25.546875,
          "velocity": 0.7874015748031497,
          "duration": 0.234375
        },
        {
          "name": "F4",
          "midi": 65,
          "time": 25.546875,
          "velocity": 0.7874015748031497,
          "duration": 0.234375
        },
        {
          "name": "C#5",
          "midi": 73,
          "time": 26.015625,
          "velocity": 0.7874015748031497,
          "duration": 0.234375
        },
        {
          "name": "A4",
          "midi": 69,
          "time": 26.015625,
          "velocity": 0.7874015748031497,
          "duration": 0.234375
        },
        {
          "name": "A#4",
          "midi": 70,
          "time": 26.3671875,
          "velocity": 0.7874015748031497,
          "duration": 0.1171875
        },
        {
          "name": "G4",
          "midi": 67,
          "time": 26.3671875,
          "velocity": 0.7874015748031497,
          "duration": 0.1171875
        },
        {
          "name": "G#4",
          "midi": 68,
          "time": 26.484375,
          "velocity": 0.7874015748031497,
          "duration": 0.1171875
        },
        {
          "name": "F4",
          "midi": 65,
          "time": 26.484375,
          "velocity": 0.7874015748031497,
          "duration": 0.1171875
        },
        {
          "name": "A#4",
          "midi": 70,
          "time": 26.71875,
          "velocity": 0.7874015748031497,
          "duration": 0.46875
        },
        {
          "name": "G4",
          "midi": 67,
          "time": 26.71875,
          "velocity": 0.7874015748031497,
          "duration": 0.46875
        },
        {
          "name": "A#4",
          "midi": 70,
          "time": 28.125,
          "velocity": 0.7874015748031497,
          "duration": 0.234375
        },
        {
          "name": "D#4",
          "midi": 63,
          "time": 28.125,
          "velocity": 0.7874015748031497,
          "duration": 0.234375
        },
        {
          "name": "G4",
          "midi": 67,
          "time": 28.125,
          "velocity": 0.7874015748031497,
          "duration": 0.234375
        },
        {
          "name": "G4",
          "midi": 67,
          "time": 28.59375,
          "velocity": 0.7874015748031497,
          "duration": 0.234375
        },
        {
          "name": "D5",
          "midi": 74,
          "time": 28.59375,
          "velocity": 0.7874015748031497,
          "duration": 0.234375
        },
        {
          "name": "B4",
          "midi": 71,
          "time": 28.59375,
          "velocity": 0.7874015748031497,
          "duration": 0.234375
        },
        {
          "name": "C5",
          "midi": 72,
          "time": 28.9453125,
          "velocity": 0.7874015748031497,
          "duration": 0.1171875
        },
        {
          "name": "A4",
          "midi": 69,
          "time": 28.9453125,
          "velocity": 0.7874015748031497,
          "duration": 0.1171875
        },
        {
          "name": "A#4",
          "midi": 70,
          "time": 29.0625,
          "velocity": 0.7874015748031497,
          "duration": 0.1171875
        },
        {
          "name": "G4",
          "midi": 67,
          "time": 29.0625,
          "velocity": 0.7874015748031497,
          "duration": 0.1171875
        },
        {
          "name": "G#4",
          "midi": 68,
          "time": 29.296875,
          "velocity": 0.7874015748031497,
          "duration": 0.234375
        },
        {
          "name": "F4",
          "midi": 65,
          "time": 29.296875,
          "velocity": 0.7874015748031497,
          "duration": 0.234375
        },
        {
          "name": "C#5",
          "midi": 73,
          "time": 29.765625,
          "velocity": 0.7874015748031497,
          "duration": 0.234375
        },
        {
          "name": "A4",
          "midi": 69,
          "time": 29.765625,
          "velocity": 0.7874015748031497,
          "duration": 0.234375
        },
        {
          "name": "A#4",
          "midi": 70,
          "time": 30.1171875,
          "velocity": 0.7874015748031497,
          "duration": 0.1171875
        },
        {
          "name": "G4",
          "midi": 67,
          "time": 30.1171875,
          "velocity": 0.7874015748031497,
          "duration": 0.1171875
        },
        {
          "name": "G#4",
          "midi": 68,
          "time": 30.234375,
          "velocity": 0.7874015748031497,
          "duration": 0.1171875
        },
        {
          "name": "F4",
          "midi": 65,
          "time": 30.234375,
          "velocity": 0.7874015748031497,
          "duration": 0.1171875
        },
        {
          "name": "A#4",
          "midi": 70,
          "time": 30.46875,
          "velocity": 0.7874015748031497,
          "duration": 0.46875
        },
        {
          "name": "G4",
          "midi": 67,
          "time": 30.46875,
          "velocity": 0.7874015748031497,
          "duration": 0.46875
        },
        {
          "name": "G4",
          "midi": 67,
          "time": 31.875,
          "velocity": 0.7874015748031497,
          "duration": 0.234375
        },
        {
          "name": "B4",
          "midi": 71,
          "time": 32.34375,
          "velocity": 0.7874015748031497,
          "duration": 0.234375
        },
        {
          "name": "A4",
          "midi": 69,
          "time": 32.6953125,
          "velocity": 0.7874015748031497,
          "duration": 0.1171875
        },
        {
          "name": "G4",
          "midi": 67,
          "time": 32.8125,
          "velocity": 0.7874015748031497,
          "duration": 0.1171875
        },
        {
          "name": "F4",
          "midi": 65,
          "time": 33.046875,
          "velocity": 0.7874015748031497,
          "duration": 0.234375
        },
        {
          "name": "A4",
          "midi": 69,
          "time": 33.515625,
          "velocity": 0.7874015748031497,
          "duration": 0.234375
        },
        {
          "name": "G4",
          "midi": 67,
          "time": 33.8671875,
          "velocity": 0.7874015748031497,
          "duration": 0.1171875
        },
        {
          "name": "F4",
          "midi": 65,
          "time": 33.984375,
          "velocity": 0.7874015748031497,
          "duration": 0.1171875
        },
        {
          "name": "G4",
          "midi": 67,
          "time": 34.21875,
          "velocity": 0.7874015748031497,
          "duration": 0.46875
        },
        {
          "name": "G4",
          "midi": 67,
          "time": 35.625,
          "velocity": 0.7874015748031497,
          "duration": 0.234375
        },
        {
          "name": "B4",
          "midi": 71,
          "time": 36.09375,
          "velocity": 0.7874015748031497,
          "duration": 0.234375
        },
        {
          "name": "A4",
          "midi": 69,
          "time": 36.4453125,
          "velocity": 0.7874015748031497,
          "duration": 0.1171875
        },
        {
          "name": "G4",
          "midi": 67,
          "time": 36.5625,
          "velocity": 0.7874015748031497,
          "duration": 0.1171875
        },
        {
          "name": "F4",
          "midi": 65,
          "time": 36.796875,
          "velocity": 0.7874015748031497,
          "duration": 0.234375
        },
        {
          "name": "A4",
          "midi": 69,
          "time": 37.265625,
          "velocity": 0.7874015748031497,
          "duration": 0.234375
        },
        {
          "name": "G4",
          "midi": 67,
          "time": 37.6171875,
          "velocity": 0.7874015748031497,
          "duration": 0.1171875
        },
        {
          "name": "F4",
          "midi": 65,
          "time": 37.734375,
          "velocity": 0.7874015748031497,
          "duration": 0.1171875
        },
        {
          "name": "G4",
          "midi": 67,
          "time": 37.96875,
          "velocity": 0.7874015748031497,
          "duration": 0.46875
        },
        {
          "name": "G4",
          "midi": 67,
          "time": 39.375,
          "velocity": 0.7874015748031497,
          "duration": 0.234375
        },
        {
          "name": "G4",
          "midi": 67,
          "time": 39.84375,
          "velocity": 0.7874015748031497,
          "duration": 0.1171875
        },
        {
          "name": "A4",
          "midi": 69,
          "time": 39.84375,
          "velocity": 0.7874015748031497,
          "duration": 0.1171875
        },
        {
          "name": "A4",
          "midi": 69,
          "time": 39.9609375,
          "velocity": 0.7874015748031497,
          "duration": 0.1171875
        },
        {
          "name": "B4",
          "midi": 71,
          "time": 39.9609375,
          "velocity": 0.7874015748031497,
          "duration": 0.1171875
        },
        {
          "name": "A4",
          "midi": 69,
          "time": 40.1953125,
          "velocity": 0.7874015748031497,
          "duration": 0.1171875
        },
        {
          "name": "G4",
          "midi": 67,
          "time": 40.3125,
          "velocity": 0.7874015748031497,
          "duration": 0.1171875
        },
        {
          "name": "F4",
          "midi": 65,
          "time": 40.546875,
          "velocity": 0.7874015748031497,
          "duration": 0.234375
        },
        {
          "name": "A4",
          "midi": 69,
          "time": 41.015625,
          "velocity": 0.7874015748031497,
          "duration": 0.234375
        },
        {
          "name": "G4",
          "midi": 67,
          "time": 41.3671875,
          "velocity": 0.7874015748031497,
          "duration": 0.1171875
        },
        {
          "name": "F4",
          "midi": 65,
          "time": 41.484375,
          "velocity": 0.7874015748031497,
          "duration": 0.1171875
        },
        {
          "name": "G4",
          "midi": 67,
          "time": 41.71875,
          "velocity": 0.7874015748031497,
          "duration": 0.46875
        },
        {
          "name": "A#4",
          "midi": 70,
          "time": 43.125,
          "velocity": 0.7874015748031497,
          "duration": 0.234375
        },
        {
          "name": "D#4",
          "midi": 63,
          "time": 43.125,
          "velocity": 0.7874015748031497,
          "duration": 0.234375
        },
        {
          "name": "G4",
          "midi": 67,
          "time": 43.125,
          "velocity": 0.7874015748031497,
          "duration": 0.234375
        },
        {
          "name": "G4",
          "midi": 67,
          "time": 43.59375,
          "velocity": 0.7874015748031497,
          "duration": 0.234375
        },
        {
          "name": "D5",
          "midi": 74,
          "time": 43.59375,
          "velocity": 0.7874015748031497,
          "duration": 0.234375
        },
        {
          "name": "B4",
          "midi": 71,
          "time": 43.59375,
          "velocity": 0.7874015748031497,
          "duration": 0.234375
        },
        {
          "name": "C5",
          "midi": 72,
          "time": 43.9453125,
          "velocity": 0.7874015748031497,
          "duration": 0.1171875
        },
        {
          "name": "A4",
          "midi": 69,
          "time": 43.9453125,
          "velocity": 0.7874015748031497,
          "duration": 0.1171875
        },
        {
          "name": "A#4",
          "midi": 70,
          "time": 44.0625,
          "velocity": 0.7874015748031497,
          "duration": 0.1171875
        },
        {
          "name": "G4",
          "midi": 67,
          "time": 44.0625,
          "velocity": 0.7874015748031497,
          "duration": 0.1171875
        },
        {
          "name": "G#4",
          "midi": 68,
          "time": 44.296875,
          "velocity": 0.7874015748031497,
          "duration": 0.234375
        },
        {
          "name": "F4",
          "midi": 65,
          "time": 44.296875,
          "velocity": 0.7874015748031497,
          "duration": 0.234375
        },
        {
          "name": "C#5",
          "midi": 73,
          "time": 44.765625,
          "velocity": 0.7874015748031497,
          "duration": 0.234375
        },
        {
          "name": "A4",
          "midi": 69,
          "time": 44.765625,
          "velocity": 0.7874015748031497,
          "duration": 0.234375
        },
        {
          "name": "A#4",
          "midi": 70,
          "time": 45.1171875,
          "velocity": 0.7874015748031497,
          "duration": 0.1171875
        },
        {
          "name": "G4",
          "midi": 67,
          "time": 45.1171875,
          "velocity": 0.7874015748031497,
          "duration": 0.1171875
        },
        {
          "name": "G#4",
          "midi": 68,
          "time": 45.234375,
          "velocity": 0.7874015748031497,
          "duration": 0.1171875
        },
        {
          "name": "F4",
          "midi": 65,
          "time": 45.234375,
          "velocity": 0.7874015748031497,
          "duration": 0.1171875
        },
        {
          "name": "A#4",
          "midi": 70,
          "time": 45.46875,
          "velocity": 0.7874015748031497,
          "duration": 0.46875
        },
        {
          "name": "G4",
          "midi": 67,
          "time": 45.46875,
          "velocity": 0.7874015748031497,
          "duration": 0.46875
        },
        {
          "name": "A#4",
          "midi": 70,
          "time": 46.875,
          "velocity": 0.7874015748031497,
          "duration": 0.234375
        },
        {
          "name": "D#4",
          "midi": 63,
          "time": 46.875,
          "velocity": 0.7874015748031497,
          "duration": 0.234375
        },
        {
          "name": "G4",
          "midi": 67,
          "time": 46.875,
          "velocity": 0.7874015748031497,
          "duration": 0.234375
        },
        {
          "name": "G4",
          "midi": 67,
          "time": 47.34375,
          "velocity": 0.7874015748031497,
          "duration": 0.234375
        },
        {
          "name": "D5",
          "midi": 74,
          "time": 47.34375,
          "velocity": 0.7874015748031497,
          "duration": 0.234375
        },
        {
          "name": "B4",
          "midi": 71,
          "time": 47.34375,
          "velocity": 0.7874015748031497,
          "duration": 0.234375
        },
        {
          "name": "C5",
          "midi": 72,
          "time": 47.6953125,
          "velocity": 0.7874015748031497,
          "duration": 0.1171875
        },
        {
          "name": "A4",
          "midi": 69,
          "time": 47.6953125,
          "velocity": 0.7874015748031497,
          "duration": 0.1171875
        },
        {
          "name": "A#4",
          "midi": 70,
          "time": 47.8125,
          "velocity": 0.7874015748031497,
          "duration": 0.1171875
        },
        {
          "name": "G4",
          "midi": 67,
          "time": 47.8125,
          "velocity": 0.7874015748031497,
          "duration": 0.1171875
        },
        {
          "name": "G#4",
          "midi": 68,
          "time": 48.046875,
          "velocity": 0.7874015748031497,
          "duration": 0.234375
        },
        {
          "name": "F4",
          "midi": 65,
          "time": 48.046875,
          "velocity": 0.7874015748031497,
          "duration": 0.234375
        },
        {
          "name": "C#5",
          "midi": 73,
          "time": 48.515625,
          "velocity": 0.7874015748031497,
          "duration": 0.234375
        },
        {
          "name": "A4",
          "midi": 69,
          "time": 48.515625,
          "velocity": 0.7874015748031497,
          "duration": 0.234375
        },
        {
          "name": "A#4",
          "midi": 70,
          "time": 48.8671875,
          "velocity": 0.7874015748031497,
          "duration": 0.1171875
        },
        {
          "name": "G4",
          "midi": 67,
          "time": 48.8671875,
          "velocity": 0.7874015748031497,
          "duration": 0.1171875
        },
        {
          "name": "G#4",
          "midi": 68,
          "time": 48.984375,
          "velocity": 0.7874015748031497,
          "duration": 0.1171875
        },
        {
          "name": "F4",
          "midi": 65,
          "time": 48.984375,
          "velocity": 0.7874015748031497,
          "duration": 0.1171875
        },
        {
          "name": "A#4",
          "midi": 70,
          "time": 49.21875,
          "velocity": 0.7874015748031497,
          "duration": 0.46875
        },
        {
          "name": "G4",
          "midi": 67,
          "time": 49.21875,
          "velocity": 0.7874015748031497,
          "duration": 0.46875
        },
        {
          "name": "A#4",
          "midi": 70,
          "time": 50.625,
          "velocity": 0.7874015748031497,
          "duration": 0.234375
        },
        {
          "name": "D#4",
          "midi": 63,
          "time": 50.625,
          "velocity": 0.7874015748031497,
          "duration": 0.234375
        },
        {
          "name": "G4",
          "midi": 67,
          "time": 50.625,
          "velocity": 0.7874015748031497,
          "duration": 0.234375
        },
        {
          "name": "G4",
          "midi": 67,
          "time": 51.09375,
          "velocity": 0.7874015748031497,
          "duration": 0.234375
        },
        {
          "name": "D5",
          "midi": 74,
          "time": 51.09375,
          "velocity": 0.7874015748031497,
          "duration": 0.234375
        },
        {
          "name": "B4",
          "midi": 71,
          "time": 51.09375,
          "velocity": 0.7874015748031497,
          "duration": 0.234375
        },
        {
          "name": "C5",
          "midi": 72,
          "time": 51.4453125,
          "velocity": 0.7874015748031497,
          "duration": 0.1171875
        },
        {
          "name": "A4",
          "midi": 69,
          "time": 51.4453125,
          "velocity": 0.7874015748031497,
          "duration": 0.1171875
        },
        {
          "name": "A#4",
          "midi": 70,
          "time": 51.5625,
          "velocity": 0.7874015748031497,
          "duration": 0.1171875
        },
        {
          "name": "G4",
          "midi": 67,
          "time": 51.5625,
          "velocity": 0.7874015748031497,
          "duration": 0.1171875
        },
        {
          "name": "G#4",
          "midi": 68,
          "time": 51.796875,
          "velocity": 0.7874015748031497,
          "duration": 0.234375
        },
        {
          "name": "F4",
          "midi": 65,
          "time": 51.796875,
          "velocity": 0.7874015748031497,
          "duration": 0.234375
        },
        {
          "name": "C#5",
          "midi": 73,
          "time": 52.265625,
          "velocity": 0.7874015748031497,
          "duration": 0.234375
        },
        {
          "name": "A4",
          "midi": 69,
          "time": 52.265625,
          "velocity": 0.7874015748031497,
          "duration": 0.234375
        },
        {
          "name": "A#4",
          "midi": 70,
          "time": 52.6171875,
          "velocity": 0.7874015748031497,
          "duration": 0.1171875
        },
        {
          "name": "G4",
          "midi": 67,
          "time": 52.6171875,
          "velocity": 0.7874015748031497,
          "duration": 0.1171875
        },
        {
          "name": "G#4",
          "midi": 68,
          "time": 52.734375,
          "velocity": 0.7874015748031497,
          "duration": 0.1171875
        },
        {
          "name": "F4",
          "midi": 65,
          "time": 52.734375,
          "velocity": 0.7874015748031497,
          "duration": 0.1171875
        },
        {
          "name": "A#4",
          "midi": 70,
          "time": 52.96875,
          "velocity": 0.7874015748031497,
          "duration": 0.46875
        },
        {
          "name": "G4",
          "midi": 67,
          "time": 52.96875,
          "velocity": 0.7874015748031497,
          "duration": 0.46875
        },
        {
          "name": "A#4",
          "midi": 70,
          "time": 54.375,
          "velocity": 0.7874015748031497,
          "duration": 0.234375
        },
        {
          "name": "D#4",
          "midi": 63,
          "time": 54.375,
          "velocity": 0.7874015748031497,
          "duration": 0.234375
        },
        {
          "name": "G4",
          "midi": 67,
          "time": 54.375,
          "velocity": 0.7874015748031497,
          "duration": 0.234375
        },
        {
          "name": "G4",
          "midi": 67,
          "time": 54.84375,
          "velocity": 0.7874015748031497,
          "duration": 0.234375
        },
        {
          "name": "D5",
          "midi": 74,
          "time": 54.84375,
          "velocity": 0.7874015748031497,
          "duration": 0.234375
        },
        {
          "name": "B4",
          "midi": 71,
          "time": 54.84375,
          "velocity": 0.7874015748031497,
          "duration": 0.234375
        },
        {
          "name": "C5",
          "midi": 72,
          "time": 55.1953125,
          "velocity": 0.7874015748031497,
          "duration": 0.1171875
        },
        {
          "name": "A4",
          "midi": 69,
          "time": 55.1953125,
          "velocity": 0.7874015748031497,
          "duration": 0.1171875
        },
        {
          "name": "A#4",
          "midi": 70,
          "time": 55.3125,
          "velocity": 0.7874015748031497,
          "duration": 0.1171875
        },
        {
          "name": "G4",
          "midi": 67,
          "time": 55.3125,
          "velocity": 0.7874015748031497,
          "duration": 0.1171875
        },
        {
          "name": "G#4",
          "midi": 68,
          "time": 55.546875,
          "velocity": 0.7874015748031497,
          "duration": 0.234375
        },
        {
          "name": "F4",
          "midi": 65,
          "time": 55.546875,
          "velocity": 0.7874015748031497,
          "duration": 0.234375
        },
        {
          "name": "C#5",
          "midi": 73,
          "time": 56.015625,
          "velocity": 0.7874015748031497,
          "duration": 0.234375
        },
        {
          "name": "A4",
          "midi": 69,
          "time": 56.015625,
          "velocity": 0.7874015748031497,
          "duration": 0.234375
        },
        {
          "name": "A#4",
          "midi": 70,
          "time": 56.3671875,
          "velocity": 0.7874015748031497,
          "duration": 0.1171875
        },
        {
          "name": "G4",
          "midi": 67,
          "time": 56.3671875,
          "velocity": 0.7874015748031497,
          "duration": 0.1171875
        },
        {
          "name": "G#4",
          "midi": 68,
          "time": 56.484375,
          "velocity": 0.7874015748031497,
          "duration": 0.1171875
        },
        {
          "name": "F4",
          "midi": 65,
          "time": 56.484375,
          "velocity": 0.7874015748031497,
          "duration": 0.1171875
        },
        {
          "name": "A#4",
          "midi": 70,
          "time": 56.71875,
          "velocity": 0.7874015748031497,
          "duration": 0.46875
        },
        {
          "name": "G4",
          "midi": 67,
          "time": 56.71875,
          "velocity": 0.7874015748031497,
          "duration": 0.46875
        },
        {
          "name": "G4",
          "midi": 67,
          "time": 57.65625,
          "velocity": 0.7874015748031497,
          "duration": 0.234375
        },
        {
          "name": "G4",
          "midi": 67,
          "time": 58.125,
          "velocity": 0.7874015748031497,
          "duration": 0.234375
        },
        {
          "name": "G4",
          "midi": 67,
          "time": 58.59375,
          "velocity": 0.7874015748031497,
          "duration": 0.234375
        },
        {
          "name": "G4",
          "midi": 67,
          "time": 59.296875,
          "velocity": 0.7874015748031497,
          "duration": 0.234375
        },
        {
          "name": "F4",
          "midi": 65,
          "time": 59.6484375,
          "velocity": 0.7874015748031497,
          "duration": 0.1171875
        },
        {
          "name": "D#4",
          "midi": 63,
          "time": 59.765625,
          "velocity": 0.7874015748031497,
          "duration": 0.1171875
        },
        {
          "name": "C#4",
          "midi": 61,
          "time": 59.8828125,
          "velocity": 0.7874015748031497,
          "duration": 0.1171875
        },
        {
          "name": "D#4",
          "midi": 63,
          "time": 60,
          "velocity": 0.7874015748031497,
          "duration": 0.1171875
        },
        {
          "name": "E4",
          "midi": 64,
          "time": 60.3515625,
          "velocity": 0.7874015748031497,
          "duration": 0.1171875
        },
        {
          "name": "F#4",
          "midi": 66,
          "time": 60.46875,
          "velocity": 0.7874015748031497,
          "duration": 0.1171875
        },
        {
          "name": "E4",
          "midi": 64,
          "time": 60.703125,
          "velocity": 0.7874015748031497,
          "duration": 0.234375
        },
        {
          "name": "G4",
          "midi": 67,
          "time": 61.171875,
          "velocity": 0.7874015748031497,
          "duration": 0.1171875
        },
        {
          "name": "F#4",
          "midi": 66,
          "time": 61.40625,
          "velocity": 0.7874015748031497,
          "duration": 0.1171875
        },
        {
          "name": "E4",
          "midi": 64,
          "time": 61.5234375,
          "velocity": 0.7874015748031497,
          "duration": 0.1171875
        },
        {
          "name": "D4",
          "midi": 62,
          "time": 61.640625,
          "velocity": 0.7874015748031497,
          "duration": 0.1171875
        },
        {
          "name": "D4",
          "midi": 62,
          "time": 61.875,
          "velocity": 0.7874015748031497,
          "duration": 0.1171875
        },
        {
          "name": "C4",
          "midi": 60,
          "time": 61.9921875,
          "velocity": 0.7874015748031497,
          "duration": 0.1171875
        },
        {
          "name": "D4",
          "midi": 62,
          "time": 62.2265625,
          "velocity": 0.7874015748031497,
          "duration": 0.1171875
        },
        {
          "name": "C5",
          "midi": 72,
          "time": 63.75,
          "velocity": 0.7874015748031497,
          "duration": 0.1171875
        },
        {
          "name": "C5",
          "midi": 72,
          "time": 63.984375,
          "velocity": 0.7874015748031497,
          "duration": 0.1171875
        },
        {
          "name": "G4",
          "midi": 67,
          "time": 64.21875,
          "velocity": 0.7874015748031497,
          "duration": 0.1171875
        },
        {
          "name": "G#4",
          "midi": 68,
          "time": 64.453125,
          "velocity": 0.7874015748031497,
          "duration": 0.1171875
        },
        {
          "name": "A4",
          "midi": 69,
          "time": 64.5703125,
          "velocity": 0.7874015748031497,
          "duration": 0.1171875
        },
        {
          "name": "C5",
          "midi": 72,
          "time": 65.15625,
          "velocity": 0.7874015748031497,
          "duration": 0.1171875
        },
        {
          "name": "C5",
          "midi": 72,
          "time": 65.390625,
          "velocity": 0.7874015748031497,
          "duration": 0.1171875
        },
        {
          "name": "G4",
          "midi": 67,
          "time": 65.625,
          "velocity": 0.7874015748031497,
          "duration": 0.1171875
        },
        {
          "name": "G#4",
          "midi": 68,
          "time": 65.859375,
          "velocity": 0.7874015748031497,
          "duration": 0.1171875
        },
        {
          "name": "A4",
          "midi": 69,
          "time": 65.9765625,
          "velocity": 0.7874015748031497,
          "duration": 0.1171875
        },
        {
          "name": "C5",
          "midi": 72,
          "time": 66.5625,
          "velocity": 0.7874015748031497,
          "duration": 0.1171875
        },
        {
          "name": "C5",
          "midi": 72,
          "time": 66.796875,
          "velocity": 0.7874015748031497,
          "duration": 0.1171875
        },
        {
          "name": "G4",
          "midi": 67,
          "time": 67.03125,
          "velocity": 0.7874015748031497,
          "duration": 0.1171875
        },
        {
          "name": "G4",
          "midi": 67,
          "time": 67.265625,
          "velocity": 0.7874015748031497,
          "duration": 0.1171875
        },
        {
          "name": "C5",
          "midi": 72,
          "time": 67.5,
          "velocity": 0.7874015748031497,
          "duration": 0.1171875
        },
        {
          "name": "C5",
          "midi": 72,
          "time": 67.734375,
          "velocity": 0.7874015748031497,
          "duration": 0.1171875
        },
        {
          "name": "G4",
          "midi": 67,
          "time": 67.96875,
          "velocity": 0.7874015748031497,
          "duration": 0.1171875
        },
        {
          "name": "G4",
          "midi": 67,
          "time": 68.203125,
          "velocity": 0.7874015748031497,
          "duration": 0.1171875
        },
        {
          "name": "C5",
          "midi": 72,
          "time": 68.4375,
          "velocity": 0.7874015748031497,
          "duration": 0.1171875
        },
        {
          "name": "C5",
          "midi": 72,
          "time": 68.671875,
          "velocity": 0.7874015748031497,
          "duration": 0.1171875
        },
        {
          "name": "G4",
          "midi": 67,
          "time": 68.90625,
          "velocity": 0.7874015748031497,
          "duration": 0.1171875
        },
        {
          "name": "G4",
          "midi": 67,
          "time": 69.140625,
          "velocity": 0.7874015748031497,
          "duration": 0.1171875
        },
        {
          "name": "A4",
          "midi": 69,
          "time": 69.375,
          "velocity": 0.7874015748031497,
          "duration": 0.1171875
        }
      ],
      "controlChanges": {},
      "id": 3,
      "name": "MELODY_PIANO",
      "channelNumber": 0,
      "isPercussion": false
    },
    {
      "startTime": 0,
      "duration": 0,
      "length": 0,
      "notes": [],
      "controlChanges": {},
      "id": 4,
      "name": "Track 7"
    }
  ]
}